<svg width="487" height="487" xmlns="http://www.w3.org/2000/svg" version="1.0"><circle cy="215" cx="244" fill="#fcc700" r="197.5"/><path d="M123.5 32.9c-4.7 1.2-7.2 2.8-9.7 6.3-2 2.8-2.3 4.8-2.6 13.9-.7 18.7 2.4 42.4 7.9 61.4 1.1 3.8 2.2 7.7 2.5 8.6.4 1.4-.7 1.8-6.3 2.4-27.5 2.8-62.8 16.1-88.8 33.6-19 12.8-24.6 19.4-23 27.5 1.4 7.8 26 36 44.5 51 28 22.8 63.4 38.1 101.6 44 11.5 1.7 43.9 2.3 50.4.9l3.5-.8-6 6.4c-12.7 13.7-24 33-30.1 51.8-2.8 8.4-3.6 12.7-4.1 21.8l-.6 11.3-5.9 3.2c-7 3.7-11.2 8.2-14.6 15.6-4.5 10-1.6 22.2 6.8 28.2 6.9 4.9 19.5 6.4 28.4 3.4l4.7-1.6 6.7 6.4c16.2 15.6 37.1 25.3 64.3 29.9 10.9 1.9 15 2.1 33.4 1.6 12.1-.3 24.4-1.2 29-2 39.7-7.5 80.8-26.6 107.6-50 26.6-23.2 43.7-48.5 51.1-75.3 3.2-11.8 3.2-34.7 0-45.8-6.6-22.8-22.8-42-45.4-54.1l-6-3.2 4.9-4.9c5.3-5.4 12.9-9.9 18.4-10.9 3.4-.6 3.7-.5 5.6 3.1 6.6 12.8 26.3 8 26.3-6.5 0-12.5-14-18.6-33.5-14.6-11.4 2.3-19.5 6.5-28.2 14.8l-7.4 7 .7-4.4c.9-5.9 3.1-12.3 6.4-18.9 2.8-5.5 9.5-14 11-14 .4 0 2.3 1.4 4.1 3.1 4.1 3.8 6.8 4.9 12 4.9 5.1 0 9.7-2 13.1-5.6 10.6-11.4 2.5-29.4-13.3-29.4-2.8 0-7 1.4-13.6 4.6-21.1 10.1-35.7 31.5-37.9 55.4l-.7 6.7-4.1-.9c-2.2-.5-13-1.1-23.9-1.5-19.1-.6-19.7-.6-20.1-2.7-5.4-29-8.3-39-16.1-56.7-26.7-61-80.4-105.5-144.9-120.4-17.3-3.9-50.7-6.6-58.1-4.6zM154 63.5c34.9 2.5 75 21 103.7 47.9 24.2 22.8 42.4 53.5 50.4 85.1 1.1 4.4 2.3 8.9 2.6 10 .3 1.1-2.1-1.4-5.4-5.5-7.2-8.9-25.4-26.7-33.8-33.1-29.8-22.6-61.7-36.4-96.5-41.8-7.4-1.1-15.3-2.2-17.4-2.3-3.8-.3-4-.5-5.8-5.8-5.9-17.1-8.8-30.8-10.4-48.3l-.6-7.8 2.3.5c1.3.3 6.2.7 10.9 1.1zm20.5 92.9c29 5.8 51.7 15.7 75.3 32.9 8.5 6.2 32.2 28.7 32.2 30.6 0 1.5-17.1 11.8-28 16.9-40.6 19-88.8 21.7-131.7 7.4-22.7-7.6-40.3-17.6-60.2-34.1-11.3-9.3-24-22.9-22.5-23.9.6-.4 3-2.1 5.5-3.9 7.1-4.9 27.3-14.7 38.4-18.6 11.7-4 20.5-6.2 33-8.2 12.1-1.9 46.8-1.4 58 .9zm209 86.1c12.1 1.7 20.1 4.2 32 10 32.5 15.8 45.4 46.7 33.7 80.9-2.7 7.9-2.8 8.1-7.5 9.8-8.4 3.1-17.3 4.1-26.5 2.8-7.5-1.1-8.5-1.1-10.2.5-2.9 2.7-2.6 7.1.7 9.2 2.3 1.5 5 1.8 17 1.8 7.9 0 14.2.3 14.1.7-.9 2.3-14.1 17.8-20.1 23.5-10.3 9.7-14.2 12.6-16.5 11.9-3.6-1.2-18.6-10.8-26.8-17.2-19.5-15.1-35.6-37.8-41.9-58.6-5.8-19.3-5.7-45.8.2-69l1.6-6.7 7.1-.5c3.9-.4 8.7-.8 10.6-.9 5.9-.6 22 .4 32.5 1.8zm-89.8 12.7c-2.9 12.1-3.3 42.5-.7 56.3 3.4 18.1 12.6 40.5 22.9 56.1 9.5 14.3 27.1 31.6 44.1 43.3l7.2 5-7.6 3.5c-4.2 1.9-12.1 5-17.7 6.8l-10.1 3.3-7.6-4c-34.3-17.9-59.1-44.2-68.7-72.9-7.4-22.2-7.6-49.8-.4-76 1-3.8 2-7 2.1-7.1 4.3-3 33.1-16.3 35.7-16.4.9-.1 1.1.6.8 2.1zm-80 62.8c.6 45.4 20.4 85.2 57.3 115.2l4.5 3.7-6-.5c-37.5-3.4-63-16.6-74-38.4-6.4-12.7-8.5-20.5-8.5-31.4 0-18.7 7.8-37.9 22.8-56.4 1.9-2.3 3.5-4.2 3.6-4.2 0 0 .2 5.4.3 12z"/><path d="M376.5 267.9c-17.4 7.9-13.1 33.3 5.9 34.9 11.9 1 21-9 19.2-21-.4-2.8-1.8-5.8-3.6-7.9l-2.9-3.4-.1 3.3c0 4.6-1.6 7.1-5.5 8.8-4.4 1.8-9 .3-11-3.7-2-3.7-1.9-5.8.5-9.7 1.1-1.7 1.9-3.2 1.7-3.2-.1 0-2 .9-4.2 1.9z"/></svg>