<svg width="96" height="87" viewBox="0 0 96 87" fill="none" xmlns="http://www.w3.org/2000/svg">
<path d="M16.95 8.53268C15.9 10.1221 15.75 14.8904 15.75 43.6673C15.75 72.6952 15.9 77.0452 16.95 78.1327C17.925 79.3038 20.55 79.4711 33.825 79.4711C43.575 79.4711 49.5 79.1365 49.5 78.6346C49.5 78.1327 43.425 77.7144 33.975 77.6307L18.375 77.3798L18.15 49.1048L18 20.9134L48.525 21.0808L79.125 21.3317L79.35 48.4356C79.5 67.6759 79.275 75.874 78.675 76.6269C78 77.5471 75.075 77.7981 65.925 77.7981C58.5 77.7981 54 78.1327 54 78.6346C54 79.8894 78.975 79.7221 80.1 78.4673C80.775 77.7144 81 68.7634 81 43.4163C81 13.5519 80.85 9.11826 79.8 8.03075C78.825 6.8596 74.925 6.69229 48.375 6.69229H18.075L16.95 8.53268ZM79.125 14.2211V18.8221L48.6 19.0731L18 19.2404V14.8067C18 12.2971 18.225 10.0384 18.525 9.78748C18.825 9.45287 32.55 9.28556 49.05 9.36922L79.125 9.62018V14.2211Z" fill="black"/>
<path d="M20.55 12.0462C19.65 14.6394 20.55 16.3125 22.875 16.3125C24.675 16.3125 25.2 15.8942 25.35 14.3048C25.8 11.2933 21.525 9.28558 20.55 12.0462ZM23.25 14.2212C23.25 14.6394 23.1 15.0577 22.95 15.0577C22.725 15.0577 22.35 14.6394 22.125 14.2212C21.9 13.7192 22.05 13.3846 22.425 13.3846C22.875 13.3846 23.25 13.7192 23.25 14.2212Z" fill="black"/>
<path d="M27.825 12.4643C26.85 14.472 28.425 17.0653 30.375 16.647C32.475 16.1451 33.525 13.8028 32.325 12.2134C30.975 10.373 28.725 10.5403 27.825 12.4643ZM30.75 14.2211C30.75 14.6393 30.6 15.0576 30.45 15.0576C30.225 15.0576 29.85 14.6393 29.625 14.2211C29.4 13.7192 29.55 13.3845 29.925 13.3845C30.375 13.3845 30.75 13.7192 30.75 14.2211Z" fill="black"/>
<path d="M35.25 12.1298C33.9 13.8866 34.65 16.3125 36.675 16.5635C39 16.9817 40.05 15.6433 39.45 13.05C38.925 10.6241 36.75 10.1221 35.25 12.1298ZM38.25 13.7192C38.25 14.6394 36.825 14.9741 36.375 14.2212C36.15 13.8029 36.45 13.3846 37.05 13.3846C37.725 13.3846 38.25 13.5519 38.25 13.7192Z" fill="black"/>
<path d="M45.75 12.1298C45.3 12.799 45 13.9702 45.15 14.8067C45.375 16.2288 46.575 16.3125 60.375 16.3125H75.375L75.6 14.3048C75.975 11.7115 74.7 10.875 70.35 10.875C65.775 10.875 65.625 12.3808 70.125 12.7154C72 12.8827 73.5 13.301 73.5 13.8029C73.5 14.3048 68.475 14.7231 60.375 14.8904C49.05 15.0577 47.25 14.8904 47.25 13.8029C47.25 12.799 48.525 12.5481 54.75 12.5481C59.25 12.5481 62.25 12.2135 62.25 11.7115C62.25 11.2096 59.175 10.875 54.45 10.875C48.6 10.875 46.5 11.2096 45.75 12.1298Z" fill="black"/>
<path d="M43.5 50.1923C43.5 71.9423 43.65 75.2885 44.625 75.2885C45.6 75.2885 45.75 71.9423 45.75 50.1923C45.75 28.4423 45.6 25.0961 44.625 25.0961C43.65 25.0961 43.5 28.4423 43.5 50.1923Z" fill="black"/>
<path d="M22.65 26.4346C20.1 27.6894 23.475 28.4423 31.2 28.4423C37.8 28.4423 39.825 28.1913 39.6 27.3548C39.375 26.6855 36.9 26.2673 31.425 26.1836C27.15 26.1 23.175 26.2673 22.65 26.4346Z" fill="black"/>
<path d="M50.4 26.6855C49.725 27.1038 49.5 29.1115 49.65 33.5452L49.875 39.7355L62.85 39.9865L75.75 40.1538V33.5452C75.75 28.275 75.525 26.8528 74.55 26.4346C72.75 25.6817 51.525 25.849 50.4 26.6855ZM74.25 33.0432C74.25 35.5528 74.025 37.6442 73.725 37.6442C73.425 37.6442 71.925 36.3057 70.425 34.6327C67.725 31.7048 67.575 31.6211 65.925 32.9596C64.275 34.2144 64.05 34.1307 62.1 32.0394L60 29.7807L56.025 34.1307C53.85 36.5567 51.825 38.4807 51.525 38.4807C51.225 38.4807 51 36.2221 51 33.4615V28.4423H62.625H74.25V33.0432ZM63.75 37.8115C63.75 38.1461 61.875 38.4807 59.625 38.4807C57.375 38.4807 55.5 38.2298 55.5 37.8952C55.5 37.5605 56.4 36.2221 57.525 34.9673L59.55 32.625L61.65 34.8836C62.775 36.1384 63.75 37.3932 63.75 37.8115ZM68.7 35.7202C70.125 37.8952 69.975 38.4807 68.025 38.4807C65.7 38.4807 65.175 37.7278 66.075 35.8875C66.975 33.9634 67.425 33.8798 68.7 35.7202Z" fill="black"/>
<path d="M22.275 31.4539C21 32.9596 23.325 33.4615 31.2 33.4615C37.8 33.4615 39.825 33.2106 39.6 32.374C39.225 31.2865 23.25 30.3664 22.275 31.4539Z" fill="black"/>
<path d="M22.275 36.473C21 37.9788 23.325 38.4807 31.2 38.4807C37.8 38.4807 39.825 38.2298 39.6 37.3932C39.225 36.3057 23.25 35.3855 22.275 36.473Z" fill="black"/>
<path d="M22.65 41.4923C20.1 42.7471 23.475 43.5 31.2 43.5C37.8 43.5 39.825 43.249 39.6 42.4125C39.375 41.7433 36.9 41.325 31.425 41.2413C27.15 41.1577 23.175 41.325 22.65 41.4923Z" fill="black"/>
<path d="M49.725 45.3404C49.875 45.9259 51.15 46.4279 52.5 46.4279C53.85 46.4279 55.125 45.9259 55.35 45.3404C55.5 44.6711 54.675 44.3365 52.5 44.3365C50.325 44.3365 49.5 44.6711 49.725 45.3404Z" fill="black"/>
<path d="M57.225 45.3404C57.375 46.0932 59.025 46.4279 61.875 46.4279C64.725 46.4279 66.375 46.0932 66.6 45.3404C66.825 44.5875 65.55 44.3365 61.875 44.3365C58.2 44.3365 56.925 44.5875 57.225 45.3404Z" fill="black"/>
<path d="M69.75 45.5914C69.75 46.5116 70.575 46.8462 72.75 46.8462C74.925 46.8462 75.75 46.5116 75.75 45.5914C75.75 44.6712 74.925 44.3366 72.75 44.3366C70.575 44.3366 69.75 44.6712 69.75 45.5914Z" fill="black"/>
<path d="M21.75 47.6826C21.75 48.1845 25.275 48.5192 30.75 48.5192C36.225 48.5192 39.75 48.1845 39.75 47.6826C39.75 47.1807 36.225 46.8461 30.75 46.8461C25.275 46.8461 21.75 47.1807 21.75 47.6826Z" fill="black"/>
<path d="M49.5 49.3557C49.5 49.774 51.225 50.1923 53.325 50.1923C55.65 50.1923 56.925 49.8576 56.625 49.3557C56.4 48.8538 54.675 48.5192 52.8 48.5192C51 48.5192 49.5 48.8538 49.5 49.3557Z" fill="black"/>
<path d="M58.875 49.3557C58.575 49.8576 60.6 50.1923 64.425 50.1923C67.95 50.1923 70.5 49.8576 70.5 49.3557C70.5 48.8538 68.175 48.5192 64.95 48.5192C61.875 48.5192 59.1 48.8538 58.875 49.3557Z" fill="black"/>
<path d="M72 49.3557C72 49.774 72.825 50.1923 73.875 50.1923C74.925 50.1923 75.75 49.774 75.75 49.3557C75.75 48.8538 74.925 48.5192 73.875 48.5192C72.825 48.5192 72 48.8538 72 49.3557Z" fill="black"/>
<path d="M21.75 52.7019C21.75 53.2038 25.275 53.5385 30.75 53.5385C36.225 53.5385 39.75 53.2038 39.75 52.7019C39.75 52.2 36.225 51.8654 30.75 51.8654C25.275 51.8654 21.75 52.2 21.75 52.7019Z" fill="black"/>
<path d="M50.025 54.0404C49.725 54.375 49.5 59.1432 49.5 64.5807V74.4519H62.625H75.825L75.6 64.1625L75.375 53.9567L62.925 53.7057C56.1 53.6221 50.325 53.7894 50.025 54.0404ZM74.1 64.1625L74.325 72.7788H62.625H51V64.5807C51 60.0634 51.225 56.0481 51.525 55.7134C51.825 55.4625 56.925 55.2952 62.925 55.3788L73.875 55.6298L74.1 64.1625Z" fill="black"/>
<path d="M58.5 63.9115C58.5 66.4211 58.875 68.7635 59.25 69.0144C60.375 69.7673 66.3 65.9192 66.6 64.3298C66.9 62.6567 62.475 59.3942 60.075 59.3942C58.65 59.3942 58.5 59.8961 58.5 63.9115ZM63.3 62.9913C64.575 64.0788 64.575 64.1625 62.775 65.501C60.675 67.0067 60 66.6721 60 63.8279C60 61.6529 61.275 61.3183 63.3 62.9913Z" fill="black"/>
<path d="M22.65 56.5499C20.1 57.8047 23.475 58.5576 31.2 58.5576C37.8 58.5576 39.825 58.3067 39.6 57.4701C39.375 56.8009 36.9 56.3826 31.425 56.299C27.15 56.2153 23.175 56.3826 22.65 56.5499Z" fill="black"/>
<path d="M22.125 62.7404C22.425 63.2423 26.25 63.5769 31.2 63.5769C36.375 63.5769 39.75 63.2423 39.75 62.7404C39.75 62.2384 36.225 61.9038 30.675 61.9038C24.9 61.9038 21.825 62.2384 22.125 62.7404Z" fill="black"/>
<path d="M22.125 67.7597C22.425 68.2616 26.25 68.5962 31.2 68.5962C36.375 68.5962 39.75 68.2616 39.75 67.7597C39.75 67.2577 36.225 66.9231 30.675 66.9231C24.9 66.9231 21.825 67.2577 22.125 67.7597Z" fill="black"/>
<path d="M21.75 72.7788C21.75 73.2807 25.275 73.6154 30.75 73.6154C36.225 73.6154 39.75 73.2807 39.75 72.7788C39.75 72.2769 36.225 71.9423 30.75 71.9423C25.275 71.9423 21.75 72.2769 21.75 72.7788Z" fill="black"/>
</svg>
