<svg width="96" height="90" viewBox="0 0 96 90" fill="none" xmlns="http://www.w3.org/2000/svg">
<path d="M60.1455 7.05452C59.2 7.99997 59.7091 8.79997 63.6364 12.8C67.4909 16.7272 67.6364 17.0182 67.6364 20.8V24.7272H57.0909H46.5455V20.1454C46.5455 17.5272 46.1818 15.2 45.6727 14.6909C44.4364 13.4545 18.8364 13.4545 17.6 14.6909C17.0182 15.2727 16.7273 18.3272 16.7273 23.6363V31.6363L13.8182 33.4545L10.9091 35.2727L11.0545 45.8182L11.2727 56.3636L20.7273 56.7272L30.1818 57.0909L30.4 59.0545L30.6182 61.0182L40.5818 61.2363L50.5455 61.4545L50.7636 70.4L50.9818 79.2727H55.6364H60.2909L60.5091 70.4L60.7273 61.4545L72.2182 61.2363L83.6364 61.0182V48.2909C83.6364 39.2727 83.3455 34.9091 82.6182 33.2363C81.3091 30.0363 77.0182 26.4 73.4545 25.4545L70.5455 24.6545V16.7272C70.5455 12.4363 70.3273 8.36361 70.1091 7.70906C69.7455 6.83633 68.5818 6.54543 65.1636 6.54543C62.6182 6.54543 60.3636 6.76361 60.1455 7.05452ZM67.6364 10.9091C67.6364 12.5818 66.9091 12.8 65.6 11.4909C64.2909 10.1818 64.5091 9.45452 66.1818 9.45452C67.1273 9.45452 67.6364 9.96361 67.6364 10.9091ZM43.6364 27.7818V38.9091L38.0364 42.4727C34.9091 44.4363 32 46.0363 31.5636 46.0363C31.1273 46.0363 28.2182 44.5091 25.1636 42.5454L19.6364 39.0545V27.8545V16.7272H31.6364H43.6364V27.7818ZM52.5091 32.1454C54.0364 34.4 54.1818 35.3454 54.4 46.6909L54.6182 58.9091H43.7091C34.4 58.9091 32.7273 58.7636 32.7273 57.8182C32.7273 56.8727 34.2545 56.7272 42.1818 56.7272C53.3818 56.7272 52.5091 57.8182 52.2182 44.3636L52 35.2727L49.3091 33.5272C47.2 32.1454 46.5455 31.2727 46.5455 29.6727C46.5455 27.6363 46.5455 27.6363 48.6545 28.7272C49.8182 29.3091 51.5636 30.8363 52.5091 32.1454ZM67.6364 33.0182C67.6364 37.8182 67.4909 38.4727 66.1818 38.9091C63.9273 39.6363 61.8182 42.8363 61.8182 45.5272C61.8182 47.2 62.4727 48.7272 63.9273 50.3272C69.5273 56.5818 79.1273 49.6727 75.2727 42.2545C74.6182 40.9454 73.3091 39.5636 72.3636 39.1272C70.6909 38.4 70.5455 37.9636 70.5455 32.9454C70.5455 26.9818 70.9091 26.6909 75.4182 28.8727C80.1455 31.1272 80.7273 32.9454 80.7273 46.6909V58.9091H68.8H56.8L56.5818 45.8909C56.3636 33.6727 56.2909 32.7272 54.7636 30.6182C53.8182 29.3818 53.0909 28.2182 53.0909 28C53.0909 27.7818 56.3636 27.6363 60.3636 27.6363H67.6364V33.0182ZM16.7273 36.0727C16.7273 36.6545 16.4364 36.9454 16 36.7272C15.6364 36.5091 15.2727 36 15.2727 35.5636C15.2727 35.2 15.6364 34.9091 16 34.9091C16.4364 34.9091 16.7273 35.4182 16.7273 36.0727ZM47.6364 35.5636C47.8545 35.9272 47.7091 36.4363 47.2727 36.7272C46.9091 36.9454 46.5455 36.6545 46.5455 36.0727C46.5455 34.7636 46.9818 34.5454 47.6364 35.5636ZM22.0364 43.4182C23.4909 44.3636 24.7273 45.3091 24.7273 45.4545C24.7273 46.3272 14.4727 52.4363 13.8182 52C13.0182 51.4909 12.8 39.7818 13.6 39.0545C14.0364 38.6182 15.2 39.2 22.0364 43.4182ZM49.4545 45.4545C49.4545 49.2363 49.2364 52.3636 49.0182 52.3636C48.1455 52.3636 38.5455 46.2545 38.5455 45.6727C38.5455 45.1636 47.9273 38.6909 48.9455 38.6182C49.2364 38.5454 49.4545 41.6727 49.4545 45.4545ZM72.4364 42.6182C75.4909 45.6727 73.4545 50.1091 68.9455 50.1818C66.3273 50.1818 64.7273 48.4363 64.7273 45.4545C64.7273 43.7091 65.2364 42.6182 66.3273 41.8909C68.6545 40.2182 70.3273 40.4363 72.4364 42.6182ZM29.8182 48.2909C31.3455 49.1636 31.8545 49.1636 33.5273 48.2182C35.3455 47.1272 35.6364 47.2 39.9273 49.8182C42.4 51.3454 44.5818 52.8727 44.8 53.2363C45.0182 53.5272 39.1273 53.8182 31.7091 53.8182C24.2909 53.8182 18.1818 53.6727 18.1818 53.4545C18.1818 53.0182 27.0545 47.2727 27.6364 47.2727C27.8545 47.3454 28.8 47.7818 29.8182 48.2909ZM58.0364 69.3091L58.2545 77.1636L55.8545 76.9454L53.4545 76.7273L53.2364 69.8909C53.0182 61.6 53.1636 60.9454 55.7818 61.2363L57.8182 61.4545L58.0364 69.3091Z" fill="black"/>
<path d="M29.6727 20.7273C29.2364 21.7455 28 22.6909 26.8364 22.9091C24.5091 23.4182 24.1455 24.8 25.8182 26.1818C26.4 26.6909 26.9091 28.2182 26.9091 29.6C26.9091 31.9273 27.0545 32.1455 28.5818 31.6364C30.6182 30.9818 31.9273 30.9818 34.0364 31.6364C35.4909 32.1455 35.6364 31.9273 35.6364 29.6C35.6364 28.2182 36.1455 26.6909 36.7273 26.1818C38.4 24.8 38.0364 23.4182 35.7091 22.9091C34.5455 22.6909 33.3091 21.7455 32.8727 20.7273C32.3636 19.7091 31.7091 18.9091 31.2727 18.9091C30.8364 18.9091 30.1818 19.7091 29.6727 20.7273ZM32.6545 24.6546C34.2545 25.6728 32.9455 28.3637 30.8364 28.3637C28.0727 28.3637 28.4364 24.4364 31.2727 24.0728C31.4909 24.0728 32.0727 24.2909 32.6545 24.6546Z" fill="black"/>
<path d="M26.9091 36C26.9091 36.8728 27.8545 37.0909 30.9091 37.0909C33.9636 37.0909 34.9091 36.8728 34.9091 36C34.9091 35.1273 33.9636 34.9091 30.9091 34.9091C27.8545 34.9091 26.9091 35.1273 26.9091 36Z" fill="black"/>
<path d="M27.4182 39.7818C27.1273 39.9999 26.9091 40.6545 26.9091 41.2363C26.9091 41.8909 28.0727 42.1818 30.9091 42.1818C34.4 42.1818 34.9091 42.0363 34.9091 40.7272C34.9091 39.4909 34.4 39.2727 31.4182 39.2727C29.4545 39.2727 27.6364 39.4909 27.4182 39.7818Z" fill="black"/>
</svg>
