<svg width="36" height="36" viewBox="0 0 36 36" fill="none" xmlns="http://www.w3.org/2000/svg">
<g clip-path="url(#clip0_59_158)">
<path d="M18 7.78382C21.3274 7.78382 21.7215 7.79648 23.0355 7.85644C24.2505 7.91189 24.9103 8.1149 25.3495 8.28551C25.9311 8.51157 26.3462 8.78165 26.7823 9.21769C27.2183 9.65374 27.4884 10.0689 27.7144 10.6505C27.8851 11.0897 28.0881 11.7495 28.1435 12.9645C28.2035 14.2785 28.2162 14.6726 28.2162 18C28.2162 21.3274 28.2035 21.7215 28.1435 23.0355C28.0881 24.2505 27.8851 24.9103 27.7144 25.3495C27.4884 25.9311 27.2183 26.3463 26.7823 26.7823C26.3462 27.2184 25.9311 27.4885 25.3495 27.7145C24.9103 27.8851 24.2505 28.0881 23.0355 28.1436C21.7217 28.2035 21.3276 28.2162 18 28.2162C14.6724 28.2162 14.2783 28.2035 12.9645 28.1436C11.7495 28.0881 11.0896 27.8851 10.6505 27.7145C10.0689 27.4885 9.65369 27.2184 9.21765 26.7823C8.7816 26.3463 8.51152 25.9311 8.28551 25.3495C8.11485 24.9103 7.91184 24.2505 7.85639 23.0356C7.79643 21.7215 7.78377 21.3274 7.78377 18C7.78377 14.6726 7.79643 14.2785 7.85639 12.9645C7.91184 11.7495 8.11485 11.0897 8.28551 10.6505C8.51152 10.0689 8.7816 9.65374 9.21765 9.21769C9.65369 8.78165 10.0689 8.51157 10.6505 8.28551C11.0896 8.1149 11.7495 7.91189 12.9644 7.85644C14.2785 7.79648 14.6726 7.78382 18 7.78382ZM18 5.53845C14.6156 5.53845 14.1913 5.5528 12.8621 5.61344C11.5357 5.67399 10.6299 5.88462 9.83716 6.19269C9.0177 6.51116 8.32275 6.93726 7.62998 7.63003C6.93721 8.3228 6.51111 9.01775 6.19264 9.83721C5.88457 10.6299 5.67394 11.5357 5.61339 12.8622C5.55275 14.1913 5.53845 14.6156 5.53845 18C5.53845 21.3844 5.55275 21.8088 5.61339 23.1379C5.67394 24.4643 5.88457 25.3701 6.19264 26.1628C6.51111 26.9822 6.93721 27.6772 7.62998 28.37C8.32275 29.0628 9.0177 29.4889 9.83716 29.8073C10.6299 30.1154 11.5357 30.326 12.8621 30.3866C14.1913 30.4472 14.6156 30.4615 18 30.4615C21.3843 30.4615 21.8087 30.4472 23.1378 30.3866C24.4643 30.326 25.3701 30.1154 26.1628 29.8073C26.9822 29.4889 27.6772 29.0628 28.37 28.37C29.0627 27.6772 29.4888 26.9823 29.8073 26.1628C30.1154 25.3701 30.326 24.4643 30.3865 23.1379C30.4472 21.8088 30.4615 21.3844 30.4615 18C30.4615 14.6156 30.4472 14.1913 30.3865 12.8622C30.326 11.5357 30.1154 10.6299 29.8073 9.83721C29.4888 9.01775 29.0627 8.3228 28.37 7.63003C27.6772 6.93726 26.9822 6.51116 26.1628 6.19269C25.3701 5.88462 24.4643 5.67399 23.1378 5.61344C21.8087 5.5528 21.3843 5.53845 18 5.53845ZM18 11.6008C14.4658 11.6008 11.6008 14.4659 11.6008 18C11.6008 21.5342 14.4658 24.3992 18 24.3992C21.5341 24.3992 24.3992 21.5342 24.3992 18C24.3992 14.4659 21.5341 11.6008 18 11.6008ZM18 22.1539C15.7059 22.1539 13.8461 20.2941 13.8461 18C13.8461 15.7059 15.7059 13.8461 18 13.8461C20.2941 13.8461 22.1538 15.7059 22.1538 18C22.1538 20.2941 20.2941 22.1539 18 22.1539ZM26.1473 11.348C26.1473 12.1739 25.4779 12.8434 24.652 12.8434C23.8261 12.8434 23.1566 12.1739 23.1566 11.348C23.1566 10.5221 23.8261 9.85264 24.652 9.85264C25.4779 9.85264 26.1473 10.5221 26.1473 11.348Z" fill="white"/>
</g>
<defs>
<clipPath id="clip0_59_158">
<rect width="24.9231" height="24.9231" fill="white" transform="translate(5.53845 5.53845)"/>
</clipPath>
</defs>
</svg>
