<svg width="36" height="36" viewBox="0 0 36 36" fill="none" xmlns="http://www.w3.org/2000/svg">
<path d="M24.3139 12.0321C27.8308 12.0321 30.4616 14.3583 30.4616 19.3567V28.7029H25.1169V19.9798C25.1169 17.7921 24.3416 16.2967 22.3477 16.2967C21.7349 16.2949 21.1372 16.4866 20.6399 16.8447C20.1425 17.2028 19.7711 17.7088 19.5785 18.2906C19.4335 18.7131 19.3723 19.16 19.3985 19.606V28.7029H14.1508V28.5644C14.1508 27.0967 14.1508 13.8598 14.1508 12.406H19.4954V14.7044C19.9778 13.8613 20.682 13.1665 21.5315 12.6954C22.3809 12.2243 23.3432 11.9949 24.3139 12.0321ZM11.2016 12.406V28.7029H5.85694V12.406H11.2016ZM8.55694 4.55519C8.93879 4.52454 9.32284 4.57345 9.68483 4.69883C10.0468 4.8242 10.3788 5.02332 10.6599 5.28359C10.941 5.54385 11.165 5.85961 11.3179 6.21089C11.4707 6.56217 11.5489 6.94134 11.5477 7.32442C11.5495 7.71131 11.4701 8.09428 11.3148 8.44864C11.1595 8.80299 10.9316 9.12087 10.6459 9.38178C10.3602 9.64268 10.023 9.84083 9.65609 9.96344C9.28913 10.0861 8.90055 10.1304 8.5154 10.0936C8.13465 10.1223 7.7521 10.0719 7.39177 9.94559C7.03144 9.8193 6.70112 9.61987 6.42156 9.35981C6.142 9.09975 5.91923 8.78469 5.76726 8.43442C5.61529 8.08415 5.5374 7.70623 5.53847 7.32442C5.53691 6.9388 5.6159 6.55711 5.77038 6.20378C5.92487 5.85046 6.15144 5.53329 6.4356 5.2726C6.71975 5.01191 7.05522 4.81344 7.42051 4.6899C7.78581 4.56636 8.17288 4.52048 8.55694 4.55519Z" fill="white"/>
</svg>
