<svg width="96" height="88" viewBox="0 0 96 88" fill="none" xmlns="http://www.w3.org/2000/svg">
<path d="M38.1069 6.52216C37.7405 7.32826 37.374 8.50078 37.374 9.08704C37.374 10.113 36.2015 10.2596 30.0458 10.2596C25.6489 10.2596 22.7176 10.5527 22.7176 10.9924C22.7176 11.4321 31.5847 11.7252 47.8534 11.7252C66.3939 11.7252 73.2092 11.9451 73.8687 12.6046C74.3817 13.1176 74.7481 15.6825 74.7481 18.8336C74.7481 22.058 75.0412 24.1832 75.4809 24.1832C75.9939 24.1832 76.2137 21.7649 76.0672 17.368L75.8473 10.626L63.0229 10.2596C50.9313 9.89315 50.1985 9.81987 49.9786 8.4275C49.4656 5.71605 48.2931 5.12979 43.5298 5.12979C39.7191 5.12979 38.7664 5.34964 38.1069 6.52216ZM47.6336 8.79391C47.6336 10.0397 47.1206 10.2596 44.0427 10.2596C40.4519 10.2596 39.0595 9.52674 39.9389 8.06109C40.1588 7.62139 41.9908 7.32826 44.0427 7.32826C47.1206 7.32826 47.6336 7.54811 47.6336 8.79391Z" fill="black"/>
<path d="M11.4321 11.4321C11.2122 12.0916 10.9924 23.2305 10.9924 36.2015C10.9924 53.5695 11.2122 60.0183 11.8718 60.6779C12.3847 61.1908 14.6565 61.5573 16.9282 61.5573C20.8855 61.5573 21.1053 61.7038 21.6183 63.5359C22.2779 66.3206 23.084 66.687 29.1664 66.687C32.684 66.687 34.4428 66.9802 34.4428 67.5664C34.4428 68.0061 33.4168 70.1313 32.2443 72.3298C30.9985 74.455 30.0458 76.7267 30.0458 77.313C30.0458 79.8046 31.5847 78.1191 34.516 72.5496L37.5939 66.6137L43.8229 66.8336L50.0519 67.0534L52.9832 72.6962C55.6947 78.1924 57.1603 79.7313 57.1603 77.313C57.1603 76.6534 56.1344 74.2351 54.9618 71.8168C53.716 69.3985 52.7634 67.2733 52.7634 67.0534C52.7634 66.8336 55.1084 66.687 57.9664 66.687C63.9756 66.687 65.9542 65.8809 65.9542 63.3893C65.9542 61.7038 66.174 61.5573 69.6916 61.5573C72.3298 61.5573 73.2824 61.2641 73.1359 60.6046C72.8428 59.945 65.9542 59.6519 43.1634 59.3588L13.5573 58.9924V35.542V12.0916L16.4886 11.8718C21.3985 11.5053 21.2519 10.2595 16.342 10.2595C12.971 10.2595 11.7985 10.5527 11.4321 11.4321ZM63.6092 62.8031C63.3893 64.0489 61.7771 64.1221 43.7496 64.342C24.5496 64.4886 24.1832 64.4886 24.1832 63.0229C24.1832 61.5573 24.6229 61.5573 44.0428 61.5573C62.5099 61.5573 63.829 61.6305 63.6092 62.8031Z" fill="black"/>
<path d="M56.574 17.0015C56.0611 17.5145 55.6947 19.1267 55.6947 20.5924C55.6947 22.1313 55.3282 23.5969 54.9618 23.8168C54.5221 24.1099 53.3496 25.5756 52.3237 27.1878C51.2977 28.8733 49.9786 30.0458 49.0992 30.0458C48.3664 30.0458 47.5603 30.3389 47.2672 30.7786C46.4611 32.0244 43.1634 29.8259 42.1374 27.2611C41.1847 25.1359 40.8183 24.8427 38.6931 25.0626C37.0076 25.2091 36.055 25.7954 35.3954 27.1145C33.9298 30.1191 31.658 31.658 29.8992 30.7053C26.8214 29.0198 23.3038 34.003 25.7954 36.4946C27.8473 38.5465 32.2443 37.0809 32.2443 34.3694C32.2443 32.7572 34.0031 32.0244 38.1069 31.8046C42.284 31.658 45.4351 32.7572 45.4351 34.4427C45.4351 36.2748 47.2672 37.5206 49.6122 37.2275C51.4443 37.0076 51.7374 36.6412 52.0305 34.003C52.4702 30.1924 56.9405 23.5236 59.0656 23.4504C60.971 23.4504 62.2901 22.058 62.2901 20.0794C62.2901 16.9282 58.626 14.9496 56.574 17.0015ZM60.0916 20.2259C60.0916 21.4717 58.1863 21.6183 57.4534 20.4458C56.9405 19.5664 58.5527 18.174 59.5053 18.7603C59.7985 18.9801 60.0916 19.6397 60.0916 20.2259ZM39.7924 27.6275C40.4519 28.287 38.8397 30.1191 38.0336 29.6061C37.0076 29.0198 37.2275 27.1145 38.3267 27.1145C38.913 27.1145 39.5725 27.3343 39.7924 27.6275ZM29.8992 33.8565C29.3863 35.2488 27.1145 35.4687 27.1145 34.1496C27.1145 33.4168 27.774 32.9771 28.6534 32.9771C29.5328 32.9771 30.0458 33.3435 29.8992 33.8565ZM50.0519 34.0763C50.1252 34.4427 49.6122 34.8824 48.9527 35.029C48.1466 35.1756 47.6336 34.8091 47.6336 34.0763C47.6336 32.8305 49.8321 32.7572 50.0519 34.0763Z" fill="black"/>
<path d="M65.2214 25.8687C60.2382 27.5542 57.8931 29.5328 55.9145 33.6366C53.6428 38.5465 53.8626 42.3572 56.7939 47.2671C59.2122 51.4442 65.0748 54.5954 69.3252 54.0824C71.8901 53.7893 71.9634 53.8626 75.2611 59.5053C78.7786 65.661 80.4641 67.0534 83.2489 66.3939C86.7664 65.5145 86.3267 61.1908 81.9298 54.3023C79.5115 50.4183 79.4382 49.9053 81.3435 46.1679C83.6153 41.771 83.3221 36.2748 80.684 32.0244C77.2397 26.7481 70.571 24.0366 65.2214 25.8687ZM74.3084 28.9465C79.5847 31.4381 82.0763 38.9862 79.658 44.7755C77.5328 49.9786 71.084 52.9099 65.2947 51.2977C61.9237 50.4183 57.5267 45.9481 56.7939 42.5771C55.6214 37.0809 58.5527 30.9984 63.3893 28.8733C66.3939 27.5542 71.4504 27.6275 74.3084 28.9465ZM80.7573 56.5007C83.6153 61.4107 83.9817 63.9755 82.0031 64.342C81.197 64.4885 79.8046 62.8763 77.7527 59.432C74.455 53.8626 74.3084 53.4962 75.6275 52.1771C77.0199 50.7847 77.826 51.4442 80.7573 56.5007Z" fill="black"/>
<path d="M63.2428 30.8519C61.997 31.658 60.1649 33.8565 59.2855 35.6152C57.8931 38.6198 57.8199 39.2794 58.626 41.9908C61.1176 50.345 70.2046 52.7633 76.1405 46.6076C78.8519 43.8229 79.9512 38.7664 78.4855 35.9817C77.0199 33.3435 76.4336 34.2229 76.5069 38.913C76.5802 43.0901 76.4336 43.4565 74.0886 45.5817C71.8168 47.5603 71.2306 47.7801 67.9328 47.4137C63.2428 46.974 60.8244 44.5557 60.8244 40.3053C60.8244 36.2748 62.0702 34.003 65.0015 32.6107C67.4199 31.4381 68.5191 31.4381 73.5756 32.6839C75.1878 33.0504 75.6275 32.9771 75.3344 32.171C74.3817 29.2397 67.0535 28.4336 63.2428 30.8519Z" fill="black"/>
<path d="M36.4947 37.887C35.3221 38.1802 35.1756 39.2061 35.1756 46.6076C35.1756 54.8153 35.1756 54.9618 36.9343 55.4015C41.1847 56.4275 41.4046 56.0611 41.6244 46.9741C41.8443 37.3008 41.4046 36.568 36.4947 37.887ZM39.5725 46.5344C39.5725 51.5909 39.3527 52.7634 38.4733 52.7634C37.5939 52.7634 37.374 51.5909 37.374 46.5344C37.374 41.4779 37.5939 40.3054 38.4733 40.3054C39.3527 40.3054 39.5725 41.4779 39.5725 46.5344Z" fill="black"/>
<path d="M25.429 43.6764C24.5496 44.5558 24.8427 53.8626 25.7954 54.8153C26.9679 55.9878 30.4122 55.9145 31.4382 54.6687C31.9511 54.0092 32.2443 51.6642 32.0977 48.5863L31.8779 43.6031L28.9466 43.3832C27.2611 43.2367 25.7221 43.3832 25.429 43.6764ZM29.313 49.0993C29.313 51.0779 29.0198 52.7634 28.5802 52.7634C28.2137 52.7634 27.8473 51.0779 27.8473 49.0993C27.8473 47.0474 28.2137 45.4351 28.5802 45.4351C29.0198 45.4351 29.313 47.0474 29.313 49.0993Z" fill="black"/>
<path d="M45.7282 44.1893C45.5084 44.7756 45.4351 47.487 45.5817 50.2718L45.8015 55.3282H48.7328H51.6641L51.884 49.2458L52.1038 43.2366H49.0992C47.2672 43.2366 45.9481 43.6031 45.7282 44.1893ZM49.6855 49.3191C49.8321 52.0305 49.6855 52.7634 48.8061 52.7634C47.9267 52.7634 47.6336 51.884 47.6336 49.026C47.6336 44.1893 49.3924 44.4824 49.6855 49.3191Z" fill="black"/>
<path d="M55.9878 50.8581C55.0351 53.2764 55.9878 55.3283 58.113 55.5481C59.2855 55.6947 60.6779 55.6214 61.2641 55.4016C62.803 54.8153 61.6305 52.7634 59.6519 52.7634C58.6259 52.7634 57.8931 52.3237 57.8931 51.7375C57.8931 50.1985 56.5008 49.539 55.9878 50.8581Z" fill="black"/>
</svg>
