<svg width="75" height="68" viewBox="0 0 75 68" fill="none" xmlns="http://www.w3.org/2000/svg">
<path d="M31.1377 29.2125L22.1557 25.3175L31.1377 21.5848V19.3127L19.7605 24.1815V26.6158L31.1377 31.4846V29.2125Z" fill="#010101"/>
<path d="M42.8144 11.8473H40.5689L32.1856 37.8139H34.4311L42.8144 11.8473Z" fill="#010101"/>
<path d="M54.9401 24.1815L43.5629 19.3127V21.5848L52.6946 25.3175L43.5629 29.2125V31.4846L54.9401 26.6158V24.1815Z" fill="#010101"/>
<path d="M74.8503 0H0V52.7446H25.1497L15.4192 68H59.7305L49.1018 52.7446H75V0H74.8503ZM56.5868 66.3771H18.1138L26.7964 52.7446H47.006L56.5868 66.3771ZM73.3533 51.1217H47.9042H26.1976H1.6467V1.62291H73.503V51.1217H73.3533Z" fill="#010101"/>
</svg>
