<svg width="360" height="325" viewBox="0 0 360 325" fill="none" xmlns="http://www.w3.org/2000/svg">
<path d="M180.759 286.517C259.602 286.517 323.517 222.602 323.517 143.759C323.517 64.9152 259.602 1 180.759 1C101.915 1 38 64.9152 38 143.759C38 222.602 101.915 286.517 180.759 286.517Z" fill="#FCC700"/>
<mask id="path-2-outside-1_127_70" maskUnits="userSpaceOnUse" x="0" y="-0.594238" width="360" height="326" fill="black">
<rect fill="white" y="-0.594238" width="360" height="326"/>
<path d="M95.3902 7.89665C91.9748 8.76703 90.1581 9.92754 88.3413 12.4661C86.888 14.497 86.67 15.9477 86.452 22.548C85.9433 36.1114 88.196 53.3014 92.1928 67.0824C92.9921 69.8386 93.7915 72.6674 94.0095 73.3201C94.3002 74.3356 93.5008 74.6257 89.4314 75.0609C69.4475 77.0918 43.7956 86.7385 24.9018 99.4315C11.0947 108.716 7.02531 113.503 8.18801 119.378C9.20537 125.035 27.0818 145.489 40.5255 156.369C60.8727 172.906 86.5973 184.003 114.357 188.283C122.714 189.516 146.258 189.951 150.982 188.935L153.525 188.355L149.165 192.997C139.936 202.934 131.724 216.933 127.292 230.569C125.257 236.661 124.676 239.78 124.312 246.38L123.876 254.577L119.589 256.898C114.502 259.581 111.45 262.845 108.979 268.212C105.709 275.466 107.817 284.315 113.921 288.666C118.935 292.22 128.091 293.308 134.559 291.132L137.974 289.972L142.843 294.614C154.615 305.929 169.803 312.964 189.569 316.301C197.489 317.679 200.469 317.824 213.84 317.461C222.633 317.244 231.571 316.591 234.914 316.011C263.763 310.571 293.63 296.717 313.105 279.745C332.435 262.918 344.861 244.567 350.239 225.129C352.564 216.57 352.564 199.96 350.239 191.909C345.442 175.372 333.67 161.446 317.247 152.67L312.887 150.349L316.448 146.795C320.299 142.878 325.822 139.614 329.819 138.889C332.289 138.454 332.507 138.526 333.888 141.137C338.684 150.421 353 146.94 353 136.423C353 127.356 342.826 122.932 328.656 125.833C320.372 127.501 314.486 130.548 308.164 136.568L302.786 141.645L303.295 138.454C303.949 134.174 305.547 129.532 307.946 124.745C309.98 120.756 314.849 114.591 315.939 114.591C316.23 114.591 317.61 115.606 318.918 116.839C321.898 119.595 323.86 120.393 327.639 120.393C331.345 120.393 334.688 118.943 337.158 116.331C344.861 108.063 338.975 95.0071 327.493 95.0071C325.459 95.0071 322.407 96.0226 317.61 98.3436C302.277 105.669 291.668 121.191 290.069 138.526L289.56 143.386L286.581 142.733C284.982 142.37 277.134 141.935 269.213 141.645C255.334 141.21 254.898 141.21 254.607 139.687C250.683 118.652 248.575 111.399 242.907 98.5612C223.505 54.3169 184.482 22.0403 137.611 11.2331C125.039 8.40437 100.768 6.44602 95.3902 7.89665ZM117.554 30.0913C142.915 31.9046 172.055 45.3229 192.911 64.8339C210.497 81.3711 223.723 103.638 229.536 126.558C230.336 129.75 231.208 133.014 231.426 133.812C231.644 134.609 229.9 132.796 227.502 129.822C222.269 123.367 209.044 110.456 202.94 105.814C181.284 89.4222 158.103 79.4128 132.814 75.4961C127.437 74.6982 121.696 73.9004 120.17 73.8279C117.409 73.6103 117.263 73.4652 115.955 69.621C111.668 57.2181 109.561 47.2813 108.398 34.5883L107.962 28.9308L109.633 29.2935C110.578 29.5111 114.139 29.8012 117.554 30.0913ZM132.451 97.4732C153.525 101.68 170.021 108.861 187.17 121.336C193.347 125.833 210.57 142.153 210.57 143.531C210.57 144.619 198.143 152.089 190.223 155.789C160.719 169.57 125.693 171.528 94.5182 161.156C78.0224 155.644 65.2328 148.39 50.7717 136.423C42.5602 129.677 33.3313 119.813 34.4213 119.088C34.8573 118.797 36.6014 117.564 38.4181 116.259C43.5776 112.705 58.2566 105.597 66.3228 102.768C74.825 99.8667 81.2198 98.271 90.3034 96.8204C99.0963 95.4423 124.312 95.8049 132.451 97.4732ZM284.328 159.923C293.121 161.156 298.935 162.969 307.582 167.176C331.199 178.636 340.574 201.048 332.072 225.854C330.109 231.584 330.037 231.729 326.621 232.962C320.517 235.211 314.05 235.936 307.364 234.993C301.914 234.195 301.187 234.195 299.952 235.356C297.845 237.314 298.063 240.505 300.461 242.029C302.132 243.117 304.094 243.334 312.814 243.334C318.555 243.334 323.133 243.552 323.061 243.842C322.407 245.51 312.814 256.753 308.454 260.887C300.969 267.922 298.135 270.026 296.464 269.518C293.848 268.648 282.948 261.685 276.989 257.043C262.818 246.09 251.119 229.626 246.541 214.539C242.326 200.541 242.399 181.32 246.686 164.492L247.849 159.633L253.008 159.27C255.842 158.98 259.33 158.69 260.711 158.617C264.998 158.182 276.698 158.907 284.328 159.923ZM219.072 169.134C216.965 177.911 216.674 199.96 218.563 209.97C221.034 223.098 227.72 239.345 235.204 250.66C242.108 261.032 254.898 273.58 267.251 282.066L272.483 285.693L266.96 288.231C263.908 289.609 258.168 291.858 254.098 293.163L246.759 295.557L241.236 292.656C216.311 279.672 198.289 260.597 191.313 239.78C185.935 223.678 185.79 203.659 191.022 184.656C191.749 181.9 192.475 179.579 192.548 179.506C195.673 177.33 216.601 167.684 218.491 167.611C219.145 167.539 219.29 168.046 219.072 169.134ZM160.937 214.684C161.373 247.614 175.762 276.481 202.576 298.241L205.846 300.924L201.486 300.562C174.236 298.096 155.705 288.521 147.712 272.709C143.061 263.498 141.535 257.84 141.535 249.935C141.535 236.371 147.203 222.445 158.103 209.027C159.484 207.359 160.646 205.98 160.719 205.98C160.719 205.98 160.865 209.897 160.937 214.684Z"/>
<path d="M283.462 204.105C270.047 202.914 267.012 184 279.296 178.118C280.849 177.373 282.191 176.703 282.261 176.703C282.403 176.703 281.838 177.82 281.061 179.086C279.367 181.99 279.296 183.553 280.708 186.309C282.12 189.287 285.368 190.404 288.474 189.064C291.228 187.798 292.357 185.936 292.357 182.511L292.428 180.054L294.475 182.585C295.746 184.149 296.735 186.383 297.017 188.468C298.288 197.403 291.863 204.85 283.462 204.105Z"/>
<path d="M219.072 169.134C216.965 177.911 216.674 199.96 218.563 209.97C221.034 223.098 227.72 239.345 235.204 250.66C242.108 261.032 254.898 273.58 267.251 282.066L272.483 285.693L266.96 288.231C263.908 289.609 258.168 291.858 254.098 293.163L246.759 295.557L241.236 292.656C216.311 279.672 198.289 260.597 191.313 239.78C185.935 223.678 185.79 203.659 191.022 184.656C191.749 181.9 192.475 179.579 192.548 179.506C195.673 177.33 216.601 167.684 218.491 167.611C219.145 167.539 219.29 168.046 219.072 169.134Z"/>
<path d="M160.937 214.684C161.373 247.614 175.762 276.481 202.576 298.241L205.846 300.924L201.486 300.562C174.236 298.096 155.705 288.521 147.712 272.709C143.061 263.498 141.535 257.84 141.535 249.935C141.535 236.371 147.203 222.445 158.103 209.027C159.484 207.359 160.646 205.98 160.719 205.98C160.719 205.98 160.865 209.897 160.937 214.684Z"/>
<path d="M132.451 97.4732C153.525 101.68 170.021 108.861 187.17 121.336C193.347 125.833 210.57 142.153 210.57 143.531C210.57 144.619 198.143 152.089 190.223 155.789C160.719 169.57 125.693 171.528 94.5182 161.156C78.0224 155.644 65.2328 148.39 50.7717 136.423C42.5602 129.677 33.3313 119.813 34.4213 119.088C34.8573 118.797 36.6014 117.564 38.4181 116.259C43.5776 112.705 58.2566 105.597 66.3228 102.768C74.825 99.8667 81.2198 98.271 90.3034 96.8204C99.0963 95.4423 124.312 95.8049 132.451 97.4732Z"/>
<path d="M117.554 30.0913C142.915 31.9046 172.055 45.3229 192.911 64.8339C210.497 81.3711 223.723 103.638 229.536 126.558C230.336 129.75 231.208 133.014 231.426 133.812C231.644 134.609 229.9 132.796 227.502 129.822C222.269 123.367 209.044 110.456 202.94 105.814C181.284 89.4222 158.103 79.4128 132.814 75.4961C127.437 74.6982 121.696 73.9004 120.17 73.8279C117.409 73.6103 117.263 73.4652 115.955 69.621C111.668 57.2181 109.561 47.2813 108.398 34.5883L107.962 28.9308L109.633 29.2935C110.578 29.5111 114.139 29.8012 117.554 30.0913Z"/>
<path fill-rule="evenodd" clip-rule="evenodd" d="M284.328 159.923C293.121 161.156 298.935 162.969 307.582 167.176C331.199 178.636 340.574 201.048 332.072 225.854C330.109 231.584 330.037 231.729 326.621 232.962C320.517 235.211 314.05 235.936 307.364 234.993C301.914 234.195 301.187 234.195 299.952 235.356C297.845 237.314 298.063 240.505 300.461 242.029C302.132 243.117 304.094 243.334 312.814 243.334C318.555 243.334 323.133 243.552 323.061 243.842C322.407 245.51 312.814 256.753 308.454 260.887C300.969 267.922 298.135 270.026 296.464 269.518C293.848 268.648 282.948 261.685 276.989 257.043C262.818 246.09 251.119 229.626 246.541 214.539C242.326 200.541 242.399 181.32 246.686 164.492L247.849 159.633L253.008 159.27C255.842 158.98 259.33 158.69 260.711 158.617C264.998 158.182 276.698 158.907 284.328 159.923ZM283.462 204.105C270.047 202.914 267.012 184 279.296 178.118C280.849 177.373 282.191 176.703 282.261 176.703C282.403 176.703 281.838 177.82 281.061 179.086C279.367 181.99 279.296 183.553 280.708 186.309C282.12 189.287 285.368 190.404 288.474 189.064C291.228 187.798 292.357 185.936 292.357 182.511L292.428 180.054L294.475 182.585C295.746 184.149 296.735 186.383 297.017 188.468C298.288 197.403 291.863 204.85 283.462 204.105Z"/>
</mask>
<path d="M95.3902 7.89665C91.9748 8.76703 90.1581 9.92754 88.3413 12.4661C86.888 14.497 86.67 15.9477 86.452 22.548C85.9433 36.1114 88.196 53.3014 92.1928 67.0824C92.9921 69.8386 93.7915 72.6674 94.0095 73.3201C94.3002 74.3356 93.5008 74.6257 89.4314 75.0609C69.4475 77.0918 43.7956 86.7385 24.9018 99.4315C11.0947 108.716 7.02531 113.503 8.18801 119.378C9.20537 125.035 27.0818 145.489 40.5255 156.369C60.8727 172.906 86.5973 184.003 114.357 188.283C122.714 189.516 146.258 189.951 150.982 188.935L153.525 188.355L149.165 192.997C139.936 202.934 131.724 216.933 127.292 230.569C125.257 236.661 124.676 239.78 124.312 246.38L123.876 254.577L119.589 256.898C114.502 259.581 111.45 262.845 108.979 268.212C105.709 275.466 107.817 284.315 113.921 288.666C118.935 292.22 128.091 293.308 134.559 291.132L137.974 289.972L142.843 294.614C154.615 305.929 169.803 312.964 189.569 316.301C197.489 317.679 200.469 317.824 213.84 317.461C222.633 317.244 231.571 316.591 234.914 316.011C263.763 310.571 293.63 296.717 313.105 279.745C332.435 262.918 344.861 244.567 350.239 225.129C352.564 216.57 352.564 199.96 350.239 191.909C345.442 175.372 333.67 161.446 317.247 152.67L312.887 150.349L316.448 146.795C320.299 142.878 325.822 139.614 329.819 138.889C332.289 138.454 332.507 138.526 333.888 141.137C338.684 150.421 353 146.94 353 136.423C353 127.356 342.826 122.932 328.656 125.833C320.372 127.501 314.486 130.548 308.164 136.568L302.786 141.645L303.295 138.454C303.949 134.174 305.547 129.532 307.946 124.745C309.98 120.756 314.849 114.591 315.939 114.591C316.23 114.591 317.61 115.606 318.918 116.839C321.898 119.595 323.86 120.393 327.639 120.393C331.345 120.393 334.688 118.943 337.158 116.331C344.861 108.063 338.975 95.0071 327.493 95.0071C325.459 95.0071 322.407 96.0226 317.61 98.3436C302.277 105.669 291.668 121.191 290.069 138.526L289.56 143.386L286.581 142.733C284.982 142.37 277.134 141.935 269.213 141.645C255.334 141.21 254.898 141.21 254.607 139.687C250.683 118.652 248.575 111.399 242.907 98.5612C223.505 54.3169 184.482 22.0403 137.611 11.2331C125.039 8.40437 100.768 6.44602 95.3902 7.89665ZM117.554 30.0913C142.915 31.9046 172.055 45.3229 192.911 64.8339C210.497 81.3711 223.723 103.638 229.536 126.558C230.336 129.75 231.208 133.014 231.426 133.812C231.644 134.609 229.9 132.796 227.502 129.822C222.269 123.367 209.044 110.456 202.94 105.814C181.284 89.4222 158.103 79.4128 132.814 75.4961C127.437 74.6982 121.696 73.9004 120.17 73.8279C117.409 73.6103 117.263 73.4652 115.955 69.621C111.668 57.2181 109.561 47.2813 108.398 34.5883L107.962 28.9308L109.633 29.2935C110.578 29.5111 114.139 29.8012 117.554 30.0913ZM132.451 97.4732C153.525 101.68 170.021 108.861 187.17 121.336C193.347 125.833 210.57 142.153 210.57 143.531C210.57 144.619 198.143 152.089 190.223 155.789C160.719 169.57 125.693 171.528 94.5182 161.156C78.0224 155.644 65.2328 148.39 50.7717 136.423C42.5602 129.677 33.3313 119.813 34.4213 119.088C34.8573 118.797 36.6014 117.564 38.4181 116.259C43.5776 112.705 58.2566 105.597 66.3228 102.768C74.825 99.8667 81.2198 98.271 90.3034 96.8204C99.0963 95.4423 124.312 95.8049 132.451 97.4732ZM284.328 159.923C293.121 161.156 298.935 162.969 307.582 167.176C331.199 178.636 340.574 201.048 332.072 225.854C330.109 231.584 330.037 231.729 326.621 232.962C320.517 235.211 314.05 235.936 307.364 234.993C301.914 234.195 301.187 234.195 299.952 235.356C297.845 237.314 298.063 240.505 300.461 242.029C302.132 243.117 304.094 243.334 312.814 243.334C318.555 243.334 323.133 243.552 323.061 243.842C322.407 245.51 312.814 256.753 308.454 260.887C300.969 267.922 298.135 270.026 296.464 269.518C293.848 268.648 282.948 261.685 276.989 257.043C262.818 246.09 251.119 229.626 246.541 214.539C242.326 200.541 242.399 181.32 246.686 164.492L247.849 159.633L253.008 159.27C255.842 158.98 259.33 158.69 260.711 158.617C264.998 158.182 276.698 158.907 284.328 159.923ZM219.072 169.134C216.965 177.911 216.674 199.96 218.563 209.97C221.034 223.098 227.72 239.345 235.204 250.66C242.108 261.032 254.898 273.58 267.251 282.066L272.483 285.693L266.96 288.231C263.908 289.609 258.168 291.858 254.098 293.163L246.759 295.557L241.236 292.656C216.311 279.672 198.289 260.597 191.313 239.78C185.935 223.678 185.79 203.659 191.022 184.656C191.749 181.9 192.475 179.579 192.548 179.506C195.673 177.33 216.601 167.684 218.491 167.611C219.145 167.539 219.29 168.046 219.072 169.134ZM160.937 214.684C161.373 247.614 175.762 276.481 202.576 298.241L205.846 300.924L201.486 300.562C174.236 298.096 155.705 288.521 147.712 272.709C143.061 263.498 141.535 257.84 141.535 249.935C141.535 236.371 147.203 222.445 158.103 209.027C159.484 207.359 160.646 205.98 160.719 205.98C160.719 205.98 160.865 209.897 160.937 214.684Z" fill="black"/>
<path d="M283.462 204.105C270.047 202.914 267.012 184 279.296 178.118C280.849 177.373 282.191 176.703 282.261 176.703C282.403 176.703 281.838 177.82 281.061 179.086C279.367 181.99 279.296 183.553 280.708 186.309C282.12 189.287 285.368 190.404 288.474 189.064C291.228 187.798 292.357 185.936 292.357 182.511L292.428 180.054L294.475 182.585C295.746 184.149 296.735 186.383 297.017 188.468C298.288 197.403 291.863 204.85 283.462 204.105Z" fill="black"/>
<path d="M219.072 169.134C216.965 177.911 216.674 199.96 218.563 209.97C221.034 223.098 227.72 239.345 235.204 250.66C242.108 261.032 254.898 273.58 267.251 282.066L272.483 285.693L266.96 288.231C263.908 289.609 258.168 291.858 254.098 293.163L246.759 295.557L241.236 292.656C216.311 279.672 198.289 260.597 191.313 239.78C185.935 223.678 185.79 203.659 191.022 184.656C191.749 181.9 192.475 179.579 192.548 179.506C195.673 177.33 216.601 167.684 218.491 167.611C219.145 167.539 219.29 168.046 219.072 169.134Z" fill="#FCC700"/>
<path d="M160.937 214.684C161.373 247.614 175.762 276.481 202.576 298.241L205.846 300.924L201.486 300.562C174.236 298.096 155.705 288.521 147.712 272.709C143.061 263.498 141.535 257.84 141.535 249.935C141.535 236.371 147.203 222.445 158.103 209.027C159.484 207.359 160.646 205.98 160.719 205.98C160.719 205.98 160.865 209.897 160.937 214.684Z" fill="#FCC700"/>
<path d="M132.451 97.4732C153.525 101.68 170.021 108.861 187.17 121.336C193.347 125.833 210.57 142.153 210.57 143.531C210.57 144.619 198.143 152.089 190.223 155.789C160.719 169.57 125.693 171.528 94.5182 161.156C78.0224 155.644 65.2328 148.39 50.7717 136.423C42.5602 129.677 33.3313 119.813 34.4213 119.088C34.8573 118.797 36.6014 117.564 38.4181 116.259C43.5776 112.705 58.2566 105.597 66.3228 102.768C74.825 99.8667 81.2198 98.271 90.3034 96.8204C99.0963 95.4423 124.312 95.8049 132.451 97.4732Z" fill="white"/>
<path d="M117.554 30.0913C142.915 31.9046 172.055 45.3229 192.911 64.8339C210.497 81.3711 223.723 103.638 229.536 126.558C230.336 129.75 231.208 133.014 231.426 133.812C231.644 134.609 229.9 132.796 227.502 129.822C222.269 123.367 209.044 110.456 202.94 105.814C181.284 89.4222 158.103 79.4128 132.814 75.4961C127.437 74.6982 121.696 73.9004 120.17 73.8279C117.409 73.6103 117.263 73.4652 115.955 69.621C111.668 57.2181 109.561 47.2813 108.398 34.5883L107.962 28.9308L109.633 29.2935C110.578 29.5111 114.139 29.8012 117.554 30.0913Z" fill="white"/>
<path fill-rule="evenodd" clip-rule="evenodd" d="M284.328 159.923C293.121 161.156 298.935 162.969 307.582 167.176C331.199 178.636 340.574 201.048 332.072 225.854C330.109 231.584 330.037 231.729 326.621 232.962C320.517 235.211 314.05 235.936 307.364 234.993C301.914 234.195 301.187 234.195 299.952 235.356C297.845 237.314 298.063 240.505 300.461 242.029C302.132 243.117 304.094 243.334 312.814 243.334C318.555 243.334 323.133 243.552 323.061 243.842C322.407 245.51 312.814 256.753 308.454 260.887C300.969 267.922 298.135 270.026 296.464 269.518C293.848 268.648 282.948 261.685 276.989 257.043C262.818 246.09 251.119 229.626 246.541 214.539C242.326 200.541 242.399 181.32 246.686 164.492L247.849 159.633L253.008 159.27C255.842 158.98 259.33 158.69 260.711 158.617C264.998 158.182 276.698 158.907 284.328 159.923ZM283.462 204.105C270.047 202.914 267.012 184 279.296 178.118C280.849 177.373 282.191 176.703 282.261 176.703C282.403 176.703 281.838 177.82 281.061 179.086C279.367 181.99 279.296 183.553 280.708 186.309C282.12 189.287 285.368 190.404 288.474 189.064C291.228 187.798 292.357 185.936 292.357 182.511L292.428 180.054L294.475 182.585C295.746 184.149 296.735 186.383 297.017 188.468C298.288 197.403 291.863 204.85 283.462 204.105Z" fill="white"/>
<path d="M95.3902 7.89665C91.9748 8.76703 90.1581 9.92754 88.3413 12.4661C86.888 14.497 86.67 15.9477 86.452 22.548C85.9433 36.1114 88.196 53.3014 92.1928 67.0824C92.9921 69.8386 93.7915 72.6674 94.0095 73.3201C94.3002 74.3356 93.5008 74.6257 89.4314 75.0609C69.4475 77.0918 43.7956 86.7385 24.9018 99.4315C11.0947 108.716 7.02531 113.503 8.18801 119.378C9.20537 125.035 27.0818 145.489 40.5255 156.369C60.8727 172.906 86.5973 184.003 114.357 188.283C122.714 189.516 146.258 189.951 150.982 188.935L153.525 188.355L149.165 192.997C139.936 202.934 131.724 216.933 127.292 230.569C125.257 236.661 124.676 239.78 124.312 246.38L123.876 254.577L119.589 256.898C114.502 259.581 111.45 262.845 108.979 268.212C105.709 275.466 107.817 284.315 113.921 288.666C118.935 292.22 128.091 293.308 134.559 291.132L137.974 289.972L142.843 294.614C154.615 305.929 169.803 312.964 189.569 316.301C197.489 317.679 200.469 317.824 213.84 317.461C222.633 317.244 231.571 316.591 234.914 316.011C263.763 310.571 293.63 296.717 313.105 279.745C332.435 262.918 344.861 244.567 350.239 225.129C352.564 216.57 352.564 199.96 350.239 191.909C345.442 175.372 333.67 161.446 317.247 152.67L312.887 150.349L316.448 146.795C320.299 142.878 325.822 139.614 329.819 138.889C332.289 138.454 332.507 138.526 333.888 141.137C338.684 150.421 353 146.94 353 136.423C353 127.356 342.826 122.932 328.656 125.833C320.372 127.501 314.486 130.548 308.164 136.568L302.786 141.645L303.295 138.454C303.949 134.174 305.547 129.532 307.946 124.745C309.98 120.756 314.849 114.591 315.939 114.591C316.23 114.591 317.61 115.606 318.918 116.839C321.898 119.595 323.86 120.393 327.639 120.393C331.345 120.393 334.688 118.943 337.158 116.331C344.861 108.063 338.975 95.0071 327.493 95.0071C325.459 95.0071 322.407 96.0226 317.61 98.3436C302.277 105.669 291.668 121.191 290.069 138.526L289.56 143.386L286.581 142.733C284.982 142.37 277.134 141.935 269.213 141.645C255.334 141.21 254.898 141.21 254.607 139.687C250.683 118.652 248.575 111.399 242.907 98.5612C223.505 54.3169 184.482 22.0403 137.611 11.2331C125.039 8.40437 100.768 6.44602 95.3902 7.89665ZM117.554 30.0913C142.915 31.9046 172.055 45.3229 192.911 64.8339C210.497 81.3711 223.723 103.638 229.536 126.558C230.336 129.75 231.208 133.014 231.426 133.812C231.644 134.609 229.9 132.796 227.502 129.822C222.269 123.367 209.044 110.456 202.94 105.814C181.284 89.4222 158.103 79.4128 132.814 75.4961C127.437 74.6982 121.696 73.9004 120.17 73.8279C117.409 73.6103 117.263 73.4652 115.955 69.621C111.668 57.2181 109.561 47.2813 108.398 34.5883L107.962 28.9308L109.633 29.2935C110.578 29.5111 114.139 29.8012 117.554 30.0913ZM132.451 97.4732C153.525 101.68 170.021 108.861 187.17 121.336C193.347 125.833 210.57 142.153 210.57 143.531C210.57 144.619 198.143 152.089 190.223 155.789C160.719 169.57 125.693 171.528 94.5182 161.156C78.0224 155.644 65.2328 148.39 50.7717 136.423C42.5602 129.677 33.3313 119.813 34.4213 119.088C34.8573 118.797 36.6014 117.564 38.4181 116.259C43.5776 112.705 58.2566 105.597 66.3228 102.768C74.825 99.8667 81.2198 98.271 90.3034 96.8204C99.0963 95.4423 124.312 95.8049 132.451 97.4732ZM284.328 159.923C293.121 161.156 298.935 162.969 307.582 167.176C331.199 178.636 340.574 201.048 332.072 225.854C330.109 231.584 330.037 231.729 326.621 232.962C320.517 235.211 314.05 235.936 307.364 234.993C301.914 234.195 301.187 234.195 299.952 235.356C297.845 237.314 298.063 240.505 300.461 242.029C302.132 243.117 304.094 243.334 312.814 243.334C318.555 243.334 323.133 243.552 323.061 243.842C322.407 245.51 312.814 256.753 308.454 260.887C300.969 267.922 298.135 270.026 296.464 269.518C293.848 268.648 282.948 261.685 276.989 257.043C262.818 246.09 251.119 229.626 246.541 214.539C242.326 200.541 242.399 181.32 246.686 164.492L247.849 159.633L253.008 159.27C255.842 158.98 259.33 158.69 260.711 158.617C264.998 158.182 276.698 158.907 284.328 159.923ZM219.072 169.134C216.965 177.911 216.674 199.96 218.563 209.97C221.034 223.098 227.72 239.345 235.204 250.66C242.108 261.032 254.898 273.58 267.251 282.066L272.483 285.693L266.96 288.231C263.908 289.609 258.168 291.858 254.098 293.163L246.759 295.557L241.236 292.656C216.311 279.672 198.289 260.597 191.313 239.78C185.935 223.678 185.79 203.659 191.022 184.656C191.749 181.9 192.475 179.579 192.548 179.506C195.673 177.33 216.601 167.684 218.491 167.611C219.145 167.539 219.29 168.046 219.072 169.134ZM160.937 214.684C161.373 247.614 175.762 276.481 202.576 298.241L205.846 300.924L201.486 300.562C174.236 298.096 155.705 288.521 147.712 272.709C143.061 263.498 141.535 257.84 141.535 249.935C141.535 236.371 147.203 222.445 158.103 209.027C159.484 207.359 160.646 205.98 160.719 205.98C160.719 205.98 160.865 209.897 160.937 214.684Z" stroke="white" stroke-width="14" mask="url(#path-2-outside-1_127_70)"/>
<path d="M283.462 204.105C270.047 202.914 267.012 184 279.296 178.118C280.849 177.373 282.191 176.703 282.261 176.703C282.403 176.703 281.838 177.82 281.061 179.086C279.367 181.99 279.296 183.553 280.708 186.309C282.12 189.287 285.368 190.404 288.474 189.064C291.228 187.798 292.357 185.936 292.357 182.511L292.428 180.054L294.475 182.585C295.746 184.149 296.735 186.383 297.017 188.468C298.288 197.403 291.863 204.85 283.462 204.105Z" stroke="white" stroke-width="14" mask="url(#path-2-outside-1_127_70)"/>
<path d="M219.072 169.134C216.965 177.911 216.674 199.96 218.563 209.97C221.034 223.098 227.72 239.345 235.204 250.66C242.108 261.032 254.898 273.58 267.251 282.066L272.483 285.693L266.96 288.231C263.908 289.609 258.168 291.858 254.098 293.163L246.759 295.557L241.236 292.656C216.311 279.672 198.289 260.597 191.313 239.78C185.935 223.678 185.79 203.659 191.022 184.656C191.749 181.9 192.475 179.579 192.548 179.506C195.673 177.33 216.601 167.684 218.491 167.611C219.145 167.539 219.29 168.046 219.072 169.134Z" stroke="white" stroke-width="14" mask="url(#path-2-outside-1_127_70)"/>
<path d="M160.937 214.684C161.373 247.614 175.762 276.481 202.576 298.241L205.846 300.924L201.486 300.562C174.236 298.096 155.705 288.521 147.712 272.709C143.061 263.498 141.535 257.84 141.535 249.935C141.535 236.371 147.203 222.445 158.103 209.027C159.484 207.359 160.646 205.98 160.719 205.98C160.719 205.98 160.865 209.897 160.937 214.684Z" stroke="white" stroke-width="14" mask="url(#path-2-outside-1_127_70)"/>
<path d="M132.451 97.4732C153.525 101.68 170.021 108.861 187.17 121.336C193.347 125.833 210.57 142.153 210.57 143.531C210.57 144.619 198.143 152.089 190.223 155.789C160.719 169.57 125.693 171.528 94.5182 161.156C78.0224 155.644 65.2328 148.39 50.7717 136.423C42.5602 129.677 33.3313 119.813 34.4213 119.088C34.8573 118.797 36.6014 117.564 38.4181 116.259C43.5776 112.705 58.2566 105.597 66.3228 102.768C74.825 99.8667 81.2198 98.271 90.3034 96.8204C99.0963 95.4423 124.312 95.8049 132.451 97.4732Z" stroke="white" stroke-width="14" mask="url(#path-2-outside-1_127_70)"/>
<path d="M117.554 30.0913C142.915 31.9046 172.055 45.3229 192.911 64.8339C210.497 81.3711 223.723 103.638 229.536 126.558C230.336 129.75 231.208 133.014 231.426 133.812C231.644 134.609 229.9 132.796 227.502 129.822C222.269 123.367 209.044 110.456 202.94 105.814C181.284 89.4222 158.103 79.4128 132.814 75.4961C127.437 74.6982 121.696 73.9004 120.17 73.8279C117.409 73.6103 117.263 73.4652 115.955 69.621C111.668 57.2181 109.561 47.2813 108.398 34.5883L107.962 28.9308L109.633 29.2935C110.578 29.5111 114.139 29.8012 117.554 30.0913Z" stroke="white" stroke-width="14" mask="url(#path-2-outside-1_127_70)"/>
<path fill-rule="evenodd" clip-rule="evenodd" d="M284.328 159.923C293.121 161.156 298.935 162.969 307.582 167.176C331.199 178.636 340.574 201.048 332.072 225.854C330.109 231.584 330.037 231.729 326.621 232.962C320.517 235.211 314.05 235.936 307.364 234.993C301.914 234.195 301.187 234.195 299.952 235.356C297.845 237.314 298.063 240.505 300.461 242.029C302.132 243.117 304.094 243.334 312.814 243.334C318.555 243.334 323.133 243.552 323.061 243.842C322.407 245.51 312.814 256.753 308.454 260.887C300.969 267.922 298.135 270.026 296.464 269.518C293.848 268.648 282.948 261.685 276.989 257.043C262.818 246.09 251.119 229.626 246.541 214.539C242.326 200.541 242.399 181.32 246.686 164.492L247.849 159.633L253.008 159.27C255.842 158.98 259.33 158.69 260.711 158.617C264.998 158.182 276.698 158.907 284.328 159.923ZM283.462 204.105C270.047 202.914 267.012 184 279.296 178.118C280.849 177.373 282.191 176.703 282.261 176.703C282.403 176.703 281.838 177.82 281.061 179.086C279.367 181.99 279.296 183.553 280.708 186.309C282.12 189.287 285.368 190.404 288.474 189.064C291.228 187.798 292.357 185.936 292.357 182.511L292.428 180.054L294.475 182.585C295.746 184.149 296.735 186.383 297.017 188.468C298.288 197.403 291.863 204.85 283.462 204.105Z" stroke="white" stroke-width="14" mask="url(#path-2-outside-1_127_70)"/>
</svg>
