<svg width="1112" height="764" xmlns="http://www.w3.org/2000/svg" version="1.0"><circle stroke="null" fill="#fcc700" cx="546" cy="220" r="196.5"/><path d="M420.5 32.9c-4.7 1.2-7.2 2.8-9.7 6.3-2 2.8-2.3 4.8-2.6 13.9-.7 18.7 2.4 42.4 7.9 61.4 1.1 3.8 2.2 7.7 2.5 8.6.4 1.4-.7 1.8-6.3 2.4-27.5 2.8-62.8 16.1-88.8 33.6-19 12.8-24.6 19.4-23 27.5 1.4 7.8 26 36 44.5 51 28 22.8 63.4 38.1 101.6 44 11.5 1.7 43.9 2.3 50.4.9l3.5-.8-6 6.4c-12.7 13.7-24 33-30.1 51.8-2.8 8.4-3.6 12.7-4.1 21.8l-.6 11.3-5.9 3.2c-7 3.7-11.2 8.2-14.6 15.6-4.5 10-1.6 22.2 6.8 28.2 6.9 4.9 19.5 6.4 28.4 3.4l4.7-1.6 6.7 6.4c16.2 15.6 37.1 25.3 64.3 29.9 10.9 1.9 15 2.1 33.4 1.6 12.1-.3 24.4-1.2 29-2 39.7-7.5 80.8-26.6 107.6-50 26.6-23.2 43.7-48.5 51.1-75.3 3.2-11.8 3.2-34.7 0-45.8-6.6-22.8-22.8-42-45.4-54.1l-6-3.2 4.9-4.9c5.3-5.4 12.9-9.9 18.4-10.9 3.4-.6 3.7-.5 5.6 3.1 6.6 12.8 26.3 8 26.3-6.5 0-12.5-14-18.6-33.5-14.6-11.4 2.3-19.5 6.5-28.2 14.8l-7.4 7 .7-4.4c.9-5.9 3.1-12.3 6.4-18.9 2.8-5.5 9.5-14 11-14 .4 0 2.3 1.4 4.1 3.1 4.1 3.8 6.8 4.9 12 4.9 5.1 0 9.7-2 13.1-5.6 10.6-11.4 2.5-29.4-13.3-29.4-2.8 0-7 1.4-13.6 4.6-21.1 10.1-35.7 31.5-37.9 55.4l-.7 6.7-4.1-.9c-2.2-.5-13-1.1-23.9-1.5-19.1-.6-19.7-.6-20.1-2.7-5.4-29-8.3-39-16.1-56.7-26.7-61-80.4-105.5-144.9-120.4-17.3-3.9-50.7-6.6-58.1-4.6zM451 63.5c34.9 2.5 75 21 103.7 47.9 24.2 22.8 42.4 53.5 50.4 85.1 1.1 4.4 2.3 8.9 2.6 10 .3 1.1-2.1-1.4-5.4-5.5-7.2-8.9-25.4-26.7-33.8-33.1-29.8-22.6-61.7-36.4-96.5-41.8-7.4-1.1-15.3-2.2-17.4-2.3-3.8-.3-4-.5-5.8-5.8-5.9-17.1-8.8-30.8-10.4-48.3l-.6-7.8 2.3.5c1.3.3 6.2.7 10.9 1.1zm20.5 92.9c29 5.8 51.7 15.7 75.3 32.9 8.5 6.2 32.2 28.7 32.2 30.6 0 1.5-17.1 11.8-28 16.9-40.6 19-88.8 21.7-131.7 7.4-22.7-7.6-40.3-17.6-60.2-34.1-11.3-9.3-24-22.9-22.5-23.9.6-.4 3-2.1 5.5-3.9 7.1-4.9 27.3-14.7 38.4-18.6 11.7-4 20.5-6.2 33-8.2 12.1-1.9 46.8-1.4 58 .9zm209 86.1c12.1 1.7 20.1 4.2 32 10 32.5 15.8 45.4 46.7 33.7 80.9-2.7 7.9-2.8 8.1-7.5 9.8-8.4 3.1-17.3 4.1-26.5 2.8-7.5-1.1-8.5-1.1-10.2.5-2.9 2.7-2.6 7.1.7 9.2 2.3 1.5 5 1.8 17 1.8 7.9 0 14.2.3 14.1.7-.9 2.3-14.1 17.8-20.1 23.5-10.3 9.7-14.2 12.6-16.5 11.9-3.6-1.2-18.6-10.8-26.8-17.2-19.5-15.1-35.6-37.8-41.9-58.6-5.8-19.3-5.7-45.8.2-69l1.6-6.7 7.1-.5c3.9-.4 8.7-.8 10.6-.9 5.9-.6 22 .4 32.5 1.8zm-89.8 12.7c-2.9 12.1-3.3 42.5-.7 56.3 3.4 18.1 12.6 40.5 22.9 56.1 9.5 14.3 27.1 31.6 44.1 43.3l7.2 5-7.6 3.5c-4.2 1.9-12.1 5-17.7 6.8l-10.1 3.3-7.6-4c-34.3-17.9-59.1-44.2-68.7-72.9-7.4-22.2-7.6-49.8-.4-76 1-3.8 2-7 2.1-7.1 4.3-3 33.1-16.3 35.7-16.4.9-.1 1.1.6.8 2.1zm-80 62.8c.6 45.4 20.4 85.2 57.3 115.2l4.5 3.7-6-.5c-37.5-3.4-63-16.6-74-38.4-6.4-12.7-8.5-20.5-8.5-31.4 0-18.7 7.8-37.9 22.8-56.4 1.9-2.3 3.5-4.2 3.6-4.2 0 0 .2 5.4.3 12z"/><path d="M673.5 267.9c-17.4 7.9-13.1 33.3 5.9 34.9 11.9 1 21-9 19.2-21-.4-2.8-1.8-5.8-3.6-7.9l-2.9-3.4-.1 3.3c0 4.6-1.6 7.1-5.5 8.8-4.4 1.8-9 .3-11-3.7-2-3.7-1.9-5.8.5-9.7 1.1-1.7 1.9-3.2 1.7-3.2-.1 0-2 .9-4.2 1.9zM1050 532.1c-11.7 2.1-21.9 9-26.2 17.7-2.9 6.1-3.1 16.8-.3 22.7 4.4 9.1 12.4 13.6 35 20.1 13.3 3.8 18 8.3 15.5 14.8-3.4 9-25.5 6.7-42.5-4.4-3.6-2.4-6.7-4.1-6.9-3.9-.2.2-2.4 4.5-5 9.6l-4.6 9.2 4.3 2.9c27.9 19.2 68.7 16.2 79.3-5.7 2.9-5.8 3.1-16.7.4-22.9-4.1-9.4-11.9-14.6-30.2-19.8-15.8-4.5-20.8-7.8-20.8-13.8 0-9 18.9-8.7 37.4.6 3.2 1.6 5.9 2.8 6.1 2.6.2-.2 2.3-4.7 4.9-10.1l4.5-9.8-7.2-3.4c-4-1.9-9.9-4.1-13.2-5-7.6-1.9-23.4-2.7-30.5-1.4zM13 582.4V633h27.8c19.9 0 29.6-.4 34.3-1.4 12-2.6 19.7-7.8 23.5-16.1 6-12.9 0-28.7-12.9-34.1l-4.5-1.9 4.6-2.5c3-1.6 5.9-4.3 8-7.4 2.8-4.3 3.2-5.6 3.2-11.9 0-8.7-2.7-14-9.7-18.6-8.8-5.9-11.9-6.3-44.5-6.9l-29.8-.4v50.6zm54.1-28.7c5.9 3.5 5.9 13 .1 17-2.3 1.5-4.7 1.8-15.7 1.8h-13l-.3-10.3-.3-10.2h13.2c10.6 0 13.7.3 16 1.7zm.9 38.9c8.9 3.6 9.2 14.7.6 18.8-2.6 1.2-6.5 1.6-17 1.6H38v-22h13c9.6 0 14 .4 17 1.6zM133 582.5V633h80v-20h-55.1l.3-10.3.3-10.2 23.8-.3 23.7-.2v-19l-23.7-.2-23.8-.3v-20l26.8-.3 26.7-.2v-20h-79v50.5zM247 582.5V633h80v-20h-55.1l.3-10.3.3-10.2 23.8-.3 23.7-.2v-19l-23.7-.2-23.8-.3v-20l26.8-.3 26.7-.2v-20h-79v50.5zM440 534.3c-13.2 4.5-23.9 13.3-29.7 24.4-4.7 9-5.6 13.9-5.1 26.6.4 10.6.7 11.9 4.1 19.1 4.5 9.6 14.3 19.7 22.9 23.9 15.4 7.4 33 7.4 48.3.1 6.5-3 17.5-10.9 17.5-12.5 0-.6-3.1-4.3-6.9-8.2l-6.8-7-6.3 4.1c-14.2 9.5-27.6 9.4-38-.4-6.6-6.2-9.4-12.8-9.4-22.4 0-26.3 28.7-38.6 48.9-20.8 2.6 2.3 5 3.7 5.4 3.2 4.8-5.2 13.1-15.5 13.1-16.1 0-2.7-15.6-11.9-24.9-14.7-8.4-2.5-24.9-2.1-33.1.7zM559.1 533.6c-13.7 3.7-27.2 14.6-33 26.8-4.3 9-5.9 19.9-4.3 30.1 3.4 21.6 20.5 38.7 42.7 42.6 13.3 2.3 29.3-.3 39.9-6.5 10.2-6 18.8-16.3 22.8-27.4 2.9-8 3-25.3 0-33.3-5.7-15.7-19.3-28.1-35.7-32.4-7.5-1.9-25.1-1.9-32.4.1zm28.7 22c10.3 5.1 15.6 14.2 15.6 26.9 0 10.3-2.7 16.8-9.6 23-10.8 9.7-25.5 9.8-36.2.4-17-15-12.4-44.2 8.1-51.5 6.5-2.3 16.1-1.8 22.1 1.2zM661 582.5v50.7l27.3-.4c29.2-.5 32.1-1 43.2-6.5 6.4-3.3 16.5-13 19.8-19.1 7.4-13.7 7.4-35.7 0-49.3-3.6-6.6-12.1-15-19-18.7-11.4-6-14.3-6.4-44-6.9l-27.3-.5v50.7zm53.8-27.5c10.3 4.4 16.3 14.6 16.3 27.4 0 12.7-4.7 21.7-14.1 27-5.1 2.9-6.2 3.1-18.2 3.4l-12.8.4v-29.9c0-16.5.3-30.3.8-30.7.4-.5 5.7-.6 11.7-.4 8.5.4 12.2 1 16.3 2.8zM788 582.5V633h80v-20h-55.1l.3-10.3.3-10.2 23.8-.3 23.7-.2v-19l-23.7-.2-23.8-.3-.3-10.3-.3-10.2H866v-20h-78v50.5zM902 582.4V633h24.9l.3-14.3.3-14.2h20l7.5 14.2 7.5 14.3h14.3c11.2 0 14.2-.3 13.6-1.3-.5-.6-5.2-8.1-10.6-16.6l-9.7-15.4 4.4-2.8c9.1-5.8 13.5-15.4 13.5-29.5 0-17-7-26.9-23.1-32.5-5.9-2.1-8.6-2.3-34.6-2.7l-28.3-.4v50.6zm54.8-28.1c4.8 2.6 7.2 7.1 7.2 13.7 0 7.1-2.5 11.8-7.6 14.4-3.3 1.8-5.7 2.1-16.4 2.1h-12.5l-.3-16.3-.3-16.4 13.3.4c10.3.3 14 .8 16.6 2.1zM162 724v21h10v-42h-10v21zM207 724.1v21.1l12.3-.4c10.8-.3 12.7-.6 16.7-2.8 2.4-1.4 5.8-4.4 7.4-6.8 2.6-3.7 3-5.1 3-11 0-7.8-1.7-11.7-7-16-4.8-4-10.1-5.2-22.3-5.2H207v21.1zm25.8-8.7c2.7 3 3.2 4.3 3.2 8.3 0 9-5.8 14-15 13.1l-3.5-.3-.3-11.4c-.1-6.3 0-12.1.3-12.9.4-1.2 1.8-1.3 6.3-.9 4.9.5 6.2 1.1 9 4.1zM278 724v21h33v-8h-23v-9h20v-8h-20v-9h22v-8h-32v21zM348.7 723.2c-4.8 11.2-8.7 20.6-8.7 21 0 .5 2.3.8 5 .8 4.9 0 5-.1 6.6-4l1.6-4h18.5l1.6 4c1.5 4 1.5 4 7.1 4h5.5l-3.1-7.3c-1.7-3.9-5.6-13.3-8.8-20.7l-5.6-13.5-5.5-.3-5.4-.3-8.8 20.3zm16.7-2.4c1.4 3.7 2.6 7.1 2.6 7.5 0 .4-2.7.7-5.9.7h-6l3.1-7.5c1.7-4.1 3.2-7.5 3.3-7.5.2 0 1.5 3 2.9 6.8zM422.4 704.4c-7.4 3.3-9.7 11.7-4.8 17.5 1.8 2.1 4.5 3.7 9 5.1 8.5 2.6 10.4 3.7 10.4 6.1 0 4.7-8 4.9-16.4.4l-4.6-2.4-2 3.9-2 4 5.2 2.6c15.2 7.7 32.7 1.4 30.4-10.9-.9-5.1-4.9-8.4-12.6-10.7-7.2-2.1-9.4-3.8-8.8-6.7.6-3.2 6.7-2.8 16 1.1 1.3.6 2.2-.2 3.8-3.4l2.1-4.1-3.8-1.6c-5.1-2.2-17.8-2.8-21.9-.9zM530 704.1c-1.3.6-3.9 2.1-5.7 3.5-9.4 7.1-9.9 23.9-1.1 32.1 7.5 7 21.3 7 30.3 0 2-1.6 2-1.6-1.1-4.7l-3.1-3.2-3.4 2.1c-11.5 7-23.9-5.2-16.9-16.7 3.9-6.4 12.8-7.5 18.4-2.3l2.2 2 2.8-3.6 2.9-3.6-2.7-2.2c-5.2-4.1-16.5-5.8-22.6-3.4zM590.7 723.2c-4.8 11.2-8.7 20.6-8.7 21 0 .5 2.3.8 5 .8 4.9 0 5-.1 6.6-4l1.6-4h18.5l1.6 4c1.5 4 1.5 4 7.1 4h5.5l-3.1-7.3c-1.7-3.9-5.6-13.3-8.8-20.7l-5.6-13.5-5.5-.3-5.4-.3-8.8 20.3zm16.7-2.4c1.4 3.7 2.6 7.1 2.6 7.5 0 .4-2.7.7-5.9.7h-6l3.1-7.5c1.7-4.1 3.2-7.5 3.3-7.5.2 0 1.5 3 2.9 6.8zM658 724v21h9v-12.5c0-6.9.4-12.5.8-12.5s5 5.6 10 12.5l9.3 12.5h8.9v-42h-9v12.5c0 6.9-.4 12.5-.8 12.5s-5-5.6-10.1-12.5l-9.3-12.5H658v21zM770 724v21h9.9l.3-7.8.3-7.7 9.3-.3 9.2-.3V721h-19v-10h20v-8h-30v21zM831 724v21h28v-9h-17v-33h-11v21zM887.1 705.2c.6 1.3 4 7.5 7.5 13.9 6.2 11.2 6.4 11.9 6.4 18.8v7.1h11v-7.1c0-6.7.3-7.7 5.6-17.8 3.1-5.8 6.6-12.1 7.6-13.9l2-3.2h-10.7l-4.8 9.1c-2.7 5-5.2 8.8-5.5 8.4-.3-.3-2.7-4.3-5.2-8.8l-4.5-8.2-5.3-.3c-5.3-.3-5.3-.3-4.1 2z"/></svg>