<svg width="96" height="81" viewBox="0 0 96 81" fill="none" xmlns="http://www.w3.org/2000/svg">
<path d="M13.5111 38.7555V69.6888H47.6444H81.8489L81.6356 62.7911C81.3511 54.2577 80.0711 53.4755 79.7867 61.6533L79.5733 67.5555H47.6444H15.6444V43.0222V18.4888H47.6444H79.6444V35.9111C79.6444 50.9155 79.7867 53.3333 80.7111 53.3333C81.6356 53.3333 81.7778 50.3466 81.7778 30.5777V7.82217H47.6444H13.5111V38.7555ZM56.0356 12.9422L55.8222 16L35.7689 16.2133L15.6444 16.3555V13.1555V9.95551H35.9822H56.2489L56.0356 12.9422ZM79.6444 13.1555V16.3555H68.9778H58.3111V13.1555V9.95551H68.9778H79.6444V13.1555Z" fill="black"/>
<path d="M62.0089 12.9421C62.4355 14.2221 64 14.4355 64 13.2266C64 12.5866 63.5022 12.0888 62.8622 12.0888C62.2222 12.0888 61.8667 12.4444 62.0089 12.9421Z" fill="black"/>
<path d="M68.2667 13.1555C68.2667 13.7244 68.6222 14.2222 68.9778 14.2222C69.4044 14.2222 69.6889 13.7244 69.6889 13.1555C69.6889 12.5866 69.4044 12.0888 68.9778 12.0888C68.6222 12.0888 68.2667 12.5866 68.2667 13.1555Z" fill="black"/>
<path d="M73.9556 13.2266C73.9556 14.4355 75.52 14.2221 75.9467 12.9421C76.0889 12.4444 75.7333 12.0888 75.0933 12.0888C74.4533 12.0888 73.9556 12.5866 73.9556 13.2266Z" fill="black"/>
<path d="M35.5555 26.1689C31.6444 28.6578 30.08 30.8622 29.0844 35.3422C28.0178 39.8933 29.1555 44.0178 32.4267 47.6444C37.0489 52.7644 43.52 53.8311 49.7067 50.6311C52.7644 48.9955 53.4755 49.2089 52.9067 51.4844C52.6222 52.6222 53.5467 53.9022 56.6755 56.96C58.9511 59.0933 61.2267 61.1555 61.7244 61.44C62.9333 62.1511 66.1333 59.3066 66.1333 57.6C66.1333 55.7511 57.5289 48.2133 55.9644 48.64C54.0444 49.1378 53.8311 47.6444 55.4667 44.4444C58.5244 38.4711 56.6755 31.36 50.9867 26.7378C48.7111 24.8889 47.5733 24.5333 43.52 24.32C39.2533 24.1066 38.4 24.32 35.5555 26.1689ZM49.6355 28.3733C54.1155 31.5022 55.8933 37.8311 53.76 42.88C52.48 46.0089 48.2133 49.6355 45.0844 50.2044C36.7644 51.7689 28.9422 43.2355 31.2889 35.2C32.2133 32.0711 34.1333 29.6533 37.3333 27.5911C40.2489 25.7422 46.5067 26.0978 49.6355 28.3733ZM60.3733 54.3289C62.2222 56.2489 63.2178 57.8133 62.9333 58.3111C62.5778 58.88 61.2978 58.0266 58.9511 55.7511C55.8933 52.7644 55.1822 51.2 56.8178 51.2C57.1022 51.2 58.6667 52.6222 60.3733 54.3289Z" fill="black"/>
<path d="M37.9022 29.8666C33.28 32.6399 31.8578 37.3332 34.0622 42.311C35.2 44.9421 36.1245 45.8666 38.8267 47.0043C44.0178 49.351 48.9956 47.5732 51.5556 42.6666C55.9645 34.2043 46.0089 24.8888 37.9022 29.8666ZM48.5689 33.4221C50.8445 35.9821 51.0578 39.1821 49.1378 42.3821C44.5156 49.991 32.7111 44.0177 35.6267 35.5554C37.4756 30.2932 44.6578 29.0843 48.5689 33.4221Z" fill="black"/>
<path d="M38.9689 36.7644C39.8222 36.9066 41.1022 36.9066 41.8133 36.7644C42.4533 36.5511 41.7422 36.4089 40.1778 36.48C38.6133 36.48 38.0445 36.6222 38.9689 36.7644Z" fill="black"/>
<path d="M40.0355 38.1867C41.4578 38.3289 43.8755 38.3289 45.3689 38.1867C46.7911 38.0444 45.5822 37.9022 42.6667 37.9022C39.7511 37.9022 38.5422 38.0444 40.0355 38.1867Z" fill="black"/>
<path d="M40.32 39.6088C41.6 39.751 43.8756 39.751 45.2978 39.6088C46.7911 39.4666 45.7956 39.3243 43.0222 39.3243C40.32 39.3243 39.1111 39.4666 40.32 39.6088Z" fill="black"/>
</svg>
