<svg width="1541" height="325" viewBox="0 0 1541 325" fill="none" xmlns="http://www.w3.org/2000/svg">
<path d="M1489.9 52.2321C1478.16 54.3347 1467.92 61.2432 1463.6 69.9539C1460.69 76.0614 1460.49 86.7746 1463.3 92.6818C1467.72 101.793 1475.75 106.299 1498.43 112.807C1511.78 116.611 1516.5 121.117 1513.99 127.625C1510.58 136.636 1488.4 134.333 1471.33 123.219C1467.72 120.816 1464.61 119.114 1464.41 119.315C1464.21 119.515 1462 123.82 1459.39 128.926L1454.77 138.138L1459.09 141.041C1487.09 160.265 1528.05 157.261 1538.69 135.334C1541.6 129.527 1541.8 118.614 1539.09 112.406C1534.97 102.995 1527.14 97.7881 1508.77 92.5817C1492.91 88.0762 1487.89 84.7721 1487.89 78.7647C1487.89 69.7536 1506.87 70.0541 1525.44 79.3655C1528.65 80.9675 1531.36 82.1689 1531.56 81.9686C1531.76 81.7684 1533.87 77.2629 1536.48 71.8563L1540.99 62.0442L1533.77 58.64C1529.75 56.7377 1523.83 54.535 1520.52 53.6339C1512.89 51.7315 1497.03 50.9305 1489.9 52.2321ZM449 102.594V153.256H476.905C496.88 153.256 506.616 152.856 511.334 151.854C523.379 149.251 531.108 144.045 534.922 135.735C540.945 122.819 534.922 106.999 521.974 101.593L517.457 99.6904L522.074 97.1874C525.085 95.5854 527.996 92.882 530.104 89.7782C532.915 85.4729 533.316 84.1714 533.316 77.8636C533.316 69.1529 530.606 63.8464 523.58 59.2407C514.746 53.3335 511.635 52.933 478.912 52.3323L449 51.9318V102.594ZM503.304 73.8587C509.226 77.363 509.226 86.8747 503.404 90.8796C501.095 92.3815 498.686 92.6818 487.645 92.6818H474.596L474.295 82.3692L473.994 72.1566H487.243C497.883 72.1566 500.995 72.457 503.304 73.8587ZM504.207 112.807C513.14 116.411 513.442 127.525 504.809 131.63C502.199 132.831 498.285 133.232 487.745 133.232H474.094V111.205H487.143C496.779 111.205 501.196 111.605 504.207 112.807ZM569.452 102.694V153.256H649.753V133.232H594.445L594.746 122.919L595.048 112.706L618.937 112.406L642.726 112.206V93.1824L618.937 92.9822L595.048 92.6818V72.6572L621.948 72.3569L648.749 72.1566V52.132H569.452V102.694ZM683.881 102.694V153.256H764.182V133.232H708.874L709.175 122.919L709.477 112.706L733.366 112.406L757.155 112.206V93.1824L733.366 92.9822L709.477 92.6818V72.6572L736.377 72.3569L763.178 72.1566V52.132H683.881V102.694ZM877.607 54.4348C864.357 58.9404 853.617 67.7512 847.795 78.8649C843.077 87.8759 842.174 92.7819 842.676 105.498C843.077 116.111 843.379 117.412 846.791 124.621C851.308 134.233 861.145 144.345 869.778 148.55C885.236 155.96 902.902 155.96 918.259 148.651C924.784 145.647 935.825 137.737 935.825 136.135C935.825 135.535 932.713 131.83 928.899 127.925L922.074 120.917L915.75 125.022C901.496 134.533 888.046 134.433 877.607 124.621C870.982 118.413 868.172 111.805 868.172 102.194C868.172 75.8612 896.979 63.5461 917.256 81.3679C919.865 83.6708 922.274 85.0725 922.676 84.5719C927.494 79.3655 935.825 69.0528 935.825 68.4521C935.825 65.7487 920.166 56.5374 910.831 53.7339C902.4 51.2309 885.838 51.6314 877.607 54.4348ZM997.155 53.7339C983.403 57.4385 969.853 68.352 964.031 80.567C959.715 89.578 958.109 100.491 959.715 110.704C963.127 132.331 980.292 149.452 1002.58 153.356C1015.93 155.659 1031.99 153.056 1042.63 146.848C1052.86 140.841 1061.5 130.528 1065.51 119.415C1068.42 111.405 1068.52 94.0836 1065.51 86.0737C1059.79 70.3544 1046.14 57.9391 1029.68 53.6339C1022.15 51.7315 1004.48 51.7315 997.155 53.7339ZM1025.96 75.761C1036.3 80.8673 1041.62 89.9785 1041.62 102.694C1041.62 113.007 1038.91 119.515 1031.99 125.722C1021.15 135.434 1006.39 135.534 995.649 126.123C978.585 111.104 983.203 81.8686 1003.78 74.5596C1010.3 72.2568 1019.94 72.7573 1025.96 75.761ZM1099.44 102.694V153.456L1126.84 153.056C1156.15 152.555 1159.06 152.055 1170.2 146.548C1176.63 143.244 1186.77 133.532 1190.08 127.425C1197.51 113.708 1197.51 91.6806 1190.08 78.0639C1186.46 71.4558 1177.93 63.0454 1171.01 59.3409C1159.56 53.3335 1156.65 52.933 1126.84 52.4324L1099.44 51.9318V102.694ZM1153.44 75.1603C1163.78 79.5657 1169.8 89.7783 1169.8 102.594C1169.8 115.31 1165.08 124.321 1155.65 129.627C1150.53 132.531 1149.43 132.731 1137.38 133.031L1124.53 133.432V103.495C1124.53 86.9748 1124.83 73.1578 1125.34 72.7573C1125.74 72.2567 1131.06 72.1566 1137.08 72.3569C1145.61 72.7574 1149.33 73.3581 1153.44 75.1603ZM1226.92 102.694V153.256H1307.22V133.232H1251.91L1252.21 122.919L1252.51 112.706L1276.4 112.406L1300.19 112.206V93.1824L1276.4 92.9822L1252.51 92.6818L1252.21 82.3692L1251.91 72.1566H1305.21V52.132H1226.92V102.694ZM1341.35 102.594V153.256H1366.34L1366.64 138.939L1366.94 124.721H1387.02L1394.55 138.939L1402.07 153.256H1416.43C1427.67 153.256 1430.68 152.956 1430.08 151.955C1429.58 151.354 1424.86 143.845 1419.44 135.334L1409.7 119.915L1414.12 117.112C1423.25 111.305 1427.67 101.693 1427.67 87.5756C1427.67 70.5547 1420.64 60.6425 1404.48 55.0356C1398.56 52.933 1395.85 52.7328 1369.75 52.3323L1341.35 51.9318V102.594ZM1396.35 74.4594C1401.17 77.0626 1403.58 81.5682 1403.58 88.1763C1403.58 95.285 1401.07 99.9908 1395.95 102.594C1392.64 104.396 1390.23 104.697 1379.49 104.697H1366.94L1366.64 88.3765L1366.34 71.9564L1379.69 72.3569C1390.03 72.6572 1393.74 73.1578 1396.35 74.4594ZM449.989 244.368V265.394H460.027V223.342H449.989V244.368ZM495.159 244.468V265.594L507.505 265.194C518.346 264.893 520.253 264.593 524.268 262.39C526.677 260.989 530.09 257.985 531.696 255.582C534.305 251.877 534.707 250.476 534.707 244.568C534.707 236.759 533.001 232.854 527.681 228.549C522.862 224.544 517.543 223.342 505.297 223.342H495.159V244.468ZM521.056 235.758C523.766 238.761 524.268 240.063 524.268 244.068C524.268 253.079 518.446 258.085 509.211 257.184L505.698 256.884L505.397 245.469C505.297 239.162 505.397 233.355 505.698 232.554C506.1 231.352 507.505 231.252 512.022 231.653C516.94 232.153 518.245 232.754 521.056 235.758ZM566.426 244.368V265.394H599.55V257.384H576.463V248.373H596.539V240.363H576.463V231.352H598.546V223.342H566.426V244.368ZM637.392 243.567C632.574 254.781 628.659 264.193 628.659 264.593C628.659 265.094 630.968 265.394 633.678 265.394C638.596 265.394 638.697 265.294 640.303 261.389L641.909 257.384H660.478L662.084 261.389C663.59 265.394 663.59 265.394 669.211 265.394H674.732L671.62 258.085C669.914 254.18 665.999 244.769 662.787 237.36L657.166 223.843L651.645 223.543L646.225 223.242L637.392 243.567ZM654.155 241.164C655.56 244.869 656.765 248.273 656.765 248.673C656.765 249.074 654.054 249.374 650.842 249.374H644.82L647.931 241.865C649.638 237.76 651.143 234.356 651.244 234.356C651.445 234.356 652.749 237.36 654.155 241.164ZM711.369 224.744C703.941 228.048 701.633 236.458 706.551 242.266C708.358 244.368 711.068 245.97 715.585 247.372C724.117 249.975 726.024 251.076 726.024 253.479C726.024 258.185 717.994 258.385 709.562 253.88L704.945 251.477L702.938 255.382L700.93 259.387L706.15 261.99C721.407 269.699 738.973 263.392 736.664 251.076C735.761 245.97 731.746 242.666 724.017 240.363C716.79 238.261 714.581 236.559 715.184 233.655C715.786 230.451 721.909 230.852 731.244 234.756C732.549 235.357 733.452 234.556 735.058 231.352L737.166 227.247L733.352 225.645C728.232 223.442 715.485 222.842 711.369 224.744ZM819.374 224.444C818.069 225.044 815.459 226.546 813.653 227.948C804.217 235.057 803.715 251.877 812.549 260.087C820.077 267.096 833.929 267.096 842.963 260.087C844.97 258.486 844.97 258.485 841.858 255.382L838.747 252.178L835.334 254.28C823.791 261.289 811.344 249.074 818.37 237.56C822.285 231.152 831.219 230.051 836.84 235.257L839.048 237.259L841.858 233.655L844.769 230.051L842.059 227.848C836.84 223.743 825.497 222.041 819.374 224.444ZM880.303 243.567C875.485 254.781 871.57 264.193 871.57 264.593C871.57 265.094 873.878 265.394 876.589 265.394C881.507 265.394 881.607 265.294 883.213 261.389L884.82 257.384H903.389L904.995 261.389C906.501 265.394 906.501 265.394 912.122 265.394H917.643L914.531 258.085C912.824 254.18 908.91 244.769 905.698 237.36L900.077 223.843L894.556 223.543L889.136 223.242L880.303 243.567ZM897.065 241.164C898.471 244.869 899.675 248.273 899.675 248.673C899.675 249.074 896.965 249.374 893.753 249.374H887.73L890.842 241.865C892.548 237.76 894.054 234.356 894.155 234.356C894.355 234.356 895.66 237.36 897.065 241.164ZM947.856 244.368V265.394H956.89V252.879C956.89 245.97 957.291 240.363 957.693 240.363C958.094 240.363 962.712 245.97 967.73 252.879L977.065 265.394H985.999V223.342H976.965V235.858C976.965 242.766 976.563 248.373 976.162 248.373C975.76 248.373 971.143 242.766 966.024 235.858L956.689 223.342H947.856V244.368ZM1060.28 244.368V265.394H1070.21L1070.52 257.584L1070.82 249.875L1080.15 249.575L1089.39 249.274V241.364H1070.31V231.352H1090.39V223.342H1060.28V244.368ZM1121.51 244.368V265.394H1149.61V256.383H1132.55V223.342H1121.51V244.368ZM1177.82 225.545C1178.42 226.847 1181.83 233.054 1185.35 239.462C1191.57 250.676 1191.77 251.377 1191.77 258.285V265.394H1202.81V258.285C1202.81 251.577 1203.11 250.576 1208.43 240.463C1211.54 234.656 1215.06 228.349 1216.06 226.546L1218.07 223.342H1207.33L1202.51 232.454C1199.8 237.46 1197.29 241.264 1196.99 240.864C1196.69 240.563 1194.28 236.559 1191.77 232.053L1187.25 223.843L1181.93 223.543C1176.61 223.242 1176.61 223.242 1177.82 225.545Z" fill="white"/>
<path d="M180.759 316.517C259.602 316.517 323.517 252.602 323.517 173.759C323.517 94.9152 259.602 31 180.759 31C101.915 31 38 94.9152 38 173.759C38 252.602 101.915 316.517 180.759 316.517Z" fill="#FCC700"/>
<mask id="path-3-outside-1_147_21" maskUnits="userSpaceOnUse" x="0" y="-1" width="360" height="326" fill="black">
<rect fill="white" y="-1" width="360" height="326"/>
<path d="M95.3902 7.49089C91.9748 8.36127 90.1581 9.52178 88.3413 12.0604C86.888 14.0913 86.67 15.5419 86.452 22.1423C85.9433 35.7057 88.196 52.8957 92.1928 66.6767C92.9921 69.4329 93.7915 72.2616 94.0095 72.9144C94.3002 73.9298 93.5008 74.2199 89.4314 74.6551C69.4475 76.686 43.7956 86.3328 24.9018 99.0258C11.0947 108.31 7.02531 113.097 8.18801 118.972C9.20537 124.629 27.0818 145.083 40.5255 155.963C60.8727 172.5 86.5973 183.598 114.357 187.877C122.714 189.11 146.258 189.545 150.982 188.53L153.525 187.949L149.165 192.591C139.936 202.528 131.724 216.527 127.292 230.163C125.257 236.255 124.676 239.374 124.312 245.975L123.876 254.171L119.589 256.492C114.502 259.175 111.45 262.439 108.979 267.807C105.709 275.06 107.817 283.909 113.921 288.261C118.935 291.815 128.091 292.903 134.559 290.727L137.974 289.566L142.843 294.208C154.615 305.523 169.803 312.559 189.569 315.895C197.489 317.273 200.469 317.418 213.84 317.056C222.633 316.838 231.571 316.185 234.914 315.605C263.763 310.165 293.63 296.312 313.105 279.339C332.435 262.512 344.861 244.161 350.239 224.723C352.564 216.164 352.564 199.555 350.239 191.504C345.442 174.966 333.67 161.04 317.247 152.264L312.887 149.943L316.448 146.389C320.299 142.472 325.822 139.208 329.819 138.483C332.289 138.048 332.507 138.12 333.888 140.731C338.684 150.015 353 146.534 353 136.017C353 126.95 342.826 122.526 328.656 125.427C320.372 127.096 314.486 130.142 308.164 136.162L302.786 141.239L303.295 138.048C303.949 133.768 305.547 129.126 307.946 124.339C309.98 120.35 314.849 114.185 315.939 114.185C316.23 114.185 317.61 115.2 318.918 116.433C321.898 119.19 323.86 119.987 327.639 119.987C331.345 119.987 334.688 118.537 337.158 115.926C344.861 107.657 338.975 94.6013 327.493 94.6013C325.459 94.6013 322.407 95.6168 317.61 97.9378C302.277 105.264 291.668 120.785 290.069 138.12L289.56 142.98L286.581 142.327C284.982 141.964 277.134 141.529 269.213 141.239C255.334 140.804 254.898 140.804 254.607 139.281C250.683 118.247 248.575 110.993 242.907 98.1554C223.505 53.9111 184.482 21.6345 137.611 10.8273C125.039 7.99861 100.768 6.04026 95.3902 7.49089ZM117.554 29.6856C142.915 31.4988 172.055 44.9172 192.911 64.4282C210.497 80.9654 223.723 103.233 229.536 126.153C230.336 129.344 231.208 132.608 231.426 133.406C231.644 134.204 229.9 132.39 227.502 129.417C222.269 122.961 209.044 110.051 202.94 105.409C181.284 89.0164 158.103 79.007 132.814 75.0903C127.437 74.2925 121.696 73.4946 120.17 73.4221C117.409 73.2045 117.263 73.0594 115.955 69.2153C111.668 56.8124 109.561 46.8755 108.398 34.1825L107.962 28.525L109.633 28.8877C110.578 29.1053 114.139 29.3954 117.554 29.6856ZM132.451 97.0674C153.525 101.274 170.021 108.455 187.17 120.93C193.347 125.427 210.57 141.747 210.57 143.125C210.57 144.213 198.143 151.684 190.223 155.383C160.719 169.164 125.693 171.122 94.5182 160.75C78.0224 155.238 65.2328 147.985 50.7717 136.017C42.5602 129.271 33.3313 119.407 34.4213 118.682C34.8573 118.392 36.6014 117.159 38.4181 115.853C43.5776 112.299 58.2566 105.191 66.3228 102.362C74.825 99.461 81.2198 97.8653 90.3034 96.4146C99.0963 95.0365 124.312 95.3992 132.451 97.0674ZM284.328 159.517C293.121 160.75 298.935 162.563 307.582 166.77C331.199 178.23 340.574 200.642 332.072 225.448C330.109 231.178 330.037 231.323 326.621 232.556C320.517 234.805 314.05 235.53 307.364 234.587C301.914 233.789 301.187 233.789 299.952 234.95C297.845 236.908 298.063 240.1 300.461 241.623C302.132 242.711 304.094 242.928 312.814 242.928C318.555 242.928 323.133 243.146 323.061 243.436C322.407 245.104 312.814 256.347 308.454 260.481C300.969 267.517 298.135 269.62 296.464 269.112C293.848 268.242 282.948 261.279 276.989 256.637C262.818 245.685 251.119 229.22 246.541 214.133C242.326 200.135 242.399 180.914 246.686 164.087L247.849 159.227L253.008 158.864C255.842 158.574 259.33 158.284 260.711 158.212C264.998 157.776 276.698 158.502 284.328 159.517ZM219.072 168.729C216.965 177.505 216.674 199.555 218.563 209.564C221.034 222.692 227.72 238.939 235.204 250.254C242.108 260.626 254.898 273.174 267.251 281.66L272.483 285.287L266.96 287.825C263.908 289.204 258.168 291.452 254.098 292.758L246.759 295.151L241.236 292.25C216.311 279.267 198.289 260.191 191.313 239.374C185.935 223.272 185.79 203.254 191.022 184.25C191.749 181.494 192.475 179.173 192.548 179.101C195.673 176.925 216.601 167.278 218.491 167.205C219.145 167.133 219.29 167.641 219.072 168.729ZM160.937 214.278C161.373 247.208 175.762 276.075 202.576 297.835L205.846 300.518L201.486 300.156C174.236 297.69 155.705 288.116 147.712 272.304C143.061 263.092 141.535 257.435 141.535 249.529C141.535 235.965 147.203 222.039 158.103 208.621C159.484 206.953 160.646 205.575 160.719 205.575C160.719 205.575 160.865 209.491 160.937 214.278Z"/>
<path d="M283.462 203.699C270.047 202.508 267.012 183.594 279.296 177.712C280.849 176.967 282.191 176.297 282.261 176.297C282.403 176.297 281.838 177.414 281.061 178.68C279.367 181.584 279.296 183.148 280.708 185.903C282.12 188.881 285.368 189.998 288.474 188.658C291.228 187.392 292.357 185.53 292.357 182.105L292.428 179.648L294.475 182.18C295.746 183.743 296.735 185.977 297.017 188.062C298.288 196.998 291.863 204.444 283.462 203.699Z"/>
<path d="M219.072 168.729C216.965 177.505 216.674 199.555 218.563 209.564C221.034 222.692 227.72 238.939 235.204 250.254C242.108 260.626 254.898 273.174 267.251 281.66L272.483 285.287L266.96 287.825C263.908 289.204 258.168 291.452 254.098 292.758L246.759 295.151L241.236 292.25C216.311 279.267 198.289 260.191 191.313 239.374C185.935 223.272 185.79 203.254 191.022 184.25C191.749 181.494 192.475 179.173 192.548 179.101C195.673 176.925 216.601 167.278 218.491 167.205C219.145 167.133 219.29 167.641 219.072 168.729Z"/>
<path d="M160.937 214.278C161.373 247.208 175.762 276.075 202.576 297.835L205.846 300.518L201.486 300.156C174.236 297.69 155.705 288.116 147.712 272.304C143.061 263.092 141.535 257.435 141.535 249.529C141.535 235.965 147.203 222.039 158.103 208.621C159.484 206.953 160.646 205.575 160.719 205.575C160.719 205.575 160.865 209.491 160.937 214.278Z"/>
<path d="M132.451 97.0674C153.525 101.274 170.021 108.455 187.17 120.93C193.347 125.427 210.57 141.747 210.57 143.125C210.57 144.213 198.143 151.684 190.223 155.383C160.719 169.164 125.693 171.122 94.5182 160.75C78.0224 155.238 65.2328 147.985 50.7717 136.017C42.5602 129.271 33.3313 119.407 34.4213 118.682C34.8573 118.392 36.6014 117.159 38.4181 115.853C43.5776 112.299 58.2566 105.191 66.3228 102.362C74.825 99.461 81.2198 97.8653 90.3034 96.4146C99.0963 95.0365 124.312 95.3992 132.451 97.0674Z"/>
<path d="M117.554 29.6856C142.915 31.4988 172.055 44.9172 192.911 64.4282C210.497 80.9654 223.723 103.233 229.536 126.153C230.336 129.344 231.208 132.608 231.426 133.406C231.644 134.204 229.9 132.39 227.502 129.417C222.269 122.961 209.044 110.051 202.94 105.409C181.284 89.0164 158.103 79.007 132.814 75.0903C127.437 74.2925 121.696 73.4946 120.17 73.4221C117.409 73.2045 117.263 73.0594 115.955 69.2153C111.668 56.8124 109.561 46.8755 108.398 34.1825L107.962 28.525L109.633 28.8877C110.578 29.1053 114.139 29.3954 117.554 29.6856Z"/>
<path fill-rule="evenodd" clip-rule="evenodd" d="M284.328 159.517C293.121 160.75 298.935 162.563 307.582 166.77C331.199 178.23 340.574 200.642 332.072 225.448C330.109 231.178 330.037 231.323 326.621 232.556C320.517 234.805 314.05 235.53 307.364 234.587C301.914 233.789 301.187 233.789 299.952 234.95C297.845 236.908 298.063 240.1 300.461 241.623C302.132 242.711 304.094 242.928 312.814 242.928C318.555 242.928 323.133 243.146 323.061 243.436C322.407 245.104 312.814 256.347 308.454 260.481C300.969 267.517 298.135 269.62 296.464 269.112C293.848 268.242 282.948 261.279 276.989 256.637C262.818 245.685 251.119 229.22 246.541 214.133C242.326 200.135 242.399 180.914 246.686 164.087L247.849 159.227L253.008 158.864C255.842 158.574 259.33 158.284 260.711 158.212C264.998 157.776 276.698 158.502 284.328 159.517ZM283.462 203.699C270.047 202.508 267.012 183.594 279.296 177.712C280.849 176.967 282.191 176.297 282.261 176.297C282.403 176.297 281.838 177.414 281.061 178.68C279.367 181.584 279.296 183.148 280.708 185.903C282.12 188.881 285.368 189.998 288.474 188.658C291.228 187.392 292.357 185.53 292.357 182.105L292.428 179.648L294.475 182.18C295.746 183.743 296.735 185.977 297.017 188.062C298.288 196.998 291.863 204.444 283.462 203.699Z"/>
</mask>
<path d="M95.3902 7.49089C91.9748 8.36127 90.1581 9.52178 88.3413 12.0604C86.888 14.0913 86.67 15.5419 86.452 22.1423C85.9433 35.7057 88.196 52.8957 92.1928 66.6767C92.9921 69.4329 93.7915 72.2616 94.0095 72.9144C94.3002 73.9298 93.5008 74.2199 89.4314 74.6551C69.4475 76.686 43.7956 86.3328 24.9018 99.0258C11.0947 108.31 7.02531 113.097 8.18801 118.972C9.20537 124.629 27.0818 145.083 40.5255 155.963C60.8727 172.5 86.5973 183.598 114.357 187.877C122.714 189.11 146.258 189.545 150.982 188.53L153.525 187.949L149.165 192.591C139.936 202.528 131.724 216.527 127.292 230.163C125.257 236.255 124.676 239.374 124.312 245.975L123.876 254.171L119.589 256.492C114.502 259.175 111.45 262.439 108.979 267.807C105.709 275.06 107.817 283.909 113.921 288.261C118.935 291.815 128.091 292.903 134.559 290.727L137.974 289.566L142.843 294.208C154.615 305.523 169.803 312.559 189.569 315.895C197.489 317.273 200.469 317.418 213.84 317.056C222.633 316.838 231.571 316.185 234.914 315.605C263.763 310.165 293.63 296.312 313.105 279.339C332.435 262.512 344.861 244.161 350.239 224.723C352.564 216.164 352.564 199.555 350.239 191.504C345.442 174.966 333.67 161.04 317.247 152.264L312.887 149.943L316.448 146.389C320.299 142.472 325.822 139.208 329.819 138.483C332.289 138.048 332.507 138.12 333.888 140.731C338.684 150.015 353 146.534 353 136.017C353 126.95 342.826 122.526 328.656 125.427C320.372 127.096 314.486 130.142 308.164 136.162L302.786 141.239L303.295 138.048C303.949 133.768 305.547 129.126 307.946 124.339C309.98 120.35 314.849 114.185 315.939 114.185C316.23 114.185 317.61 115.2 318.918 116.433C321.898 119.19 323.86 119.987 327.639 119.987C331.345 119.987 334.688 118.537 337.158 115.926C344.861 107.657 338.975 94.6013 327.493 94.6013C325.459 94.6013 322.407 95.6168 317.61 97.9378C302.277 105.264 291.668 120.785 290.069 138.12L289.56 142.98L286.581 142.327C284.982 141.964 277.134 141.529 269.213 141.239C255.334 140.804 254.898 140.804 254.607 139.281C250.683 118.247 248.575 110.993 242.907 98.1554C223.505 53.9111 184.482 21.6345 137.611 10.8273C125.039 7.99861 100.768 6.04026 95.3902 7.49089ZM117.554 29.6856C142.915 31.4988 172.055 44.9172 192.911 64.4282C210.497 80.9654 223.723 103.233 229.536 126.153C230.336 129.344 231.208 132.608 231.426 133.406C231.644 134.204 229.9 132.39 227.502 129.417C222.269 122.961 209.044 110.051 202.94 105.409C181.284 89.0164 158.103 79.007 132.814 75.0903C127.437 74.2925 121.696 73.4946 120.17 73.4221C117.409 73.2045 117.263 73.0594 115.955 69.2153C111.668 56.8124 109.561 46.8755 108.398 34.1825L107.962 28.525L109.633 28.8877C110.578 29.1053 114.139 29.3954 117.554 29.6856ZM132.451 97.0674C153.525 101.274 170.021 108.455 187.17 120.93C193.347 125.427 210.57 141.747 210.57 143.125C210.57 144.213 198.143 151.684 190.223 155.383C160.719 169.164 125.693 171.122 94.5182 160.75C78.0224 155.238 65.2328 147.985 50.7717 136.017C42.5602 129.271 33.3313 119.407 34.4213 118.682C34.8573 118.392 36.6014 117.159 38.4181 115.853C43.5776 112.299 58.2566 105.191 66.3228 102.362C74.825 99.461 81.2198 97.8653 90.3034 96.4146C99.0963 95.0365 124.312 95.3992 132.451 97.0674ZM284.328 159.517C293.121 160.75 298.935 162.563 307.582 166.77C331.199 178.23 340.574 200.642 332.072 225.448C330.109 231.178 330.037 231.323 326.621 232.556C320.517 234.805 314.05 235.53 307.364 234.587C301.914 233.789 301.187 233.789 299.952 234.95C297.845 236.908 298.063 240.1 300.461 241.623C302.132 242.711 304.094 242.928 312.814 242.928C318.555 242.928 323.133 243.146 323.061 243.436C322.407 245.104 312.814 256.347 308.454 260.481C300.969 267.517 298.135 269.62 296.464 269.112C293.848 268.242 282.948 261.279 276.989 256.637C262.818 245.685 251.119 229.22 246.541 214.133C242.326 200.135 242.399 180.914 246.686 164.087L247.849 159.227L253.008 158.864C255.842 158.574 259.33 158.284 260.711 158.212C264.998 157.776 276.698 158.502 284.328 159.517ZM219.072 168.729C216.965 177.505 216.674 199.555 218.563 209.564C221.034 222.692 227.72 238.939 235.204 250.254C242.108 260.626 254.898 273.174 267.251 281.66L272.483 285.287L266.96 287.825C263.908 289.204 258.168 291.452 254.098 292.758L246.759 295.151L241.236 292.25C216.311 279.267 198.289 260.191 191.313 239.374C185.935 223.272 185.79 203.254 191.022 184.25C191.749 181.494 192.475 179.173 192.548 179.101C195.673 176.925 216.601 167.278 218.491 167.205C219.145 167.133 219.29 167.641 219.072 168.729ZM160.937 214.278C161.373 247.208 175.762 276.075 202.576 297.835L205.846 300.518L201.486 300.156C174.236 297.69 155.705 288.116 147.712 272.304C143.061 263.092 141.535 257.435 141.535 249.529C141.535 235.965 147.203 222.039 158.103 208.621C159.484 206.953 160.646 205.575 160.719 205.575C160.719 205.575 160.865 209.491 160.937 214.278Z" fill="black"/>
<path d="M283.462 203.699C270.047 202.508 267.012 183.594 279.296 177.712C280.849 176.967 282.191 176.297 282.261 176.297C282.403 176.297 281.838 177.414 281.061 178.68C279.367 181.584 279.296 183.148 280.708 185.903C282.12 188.881 285.368 189.998 288.474 188.658C291.228 187.392 292.357 185.53 292.357 182.105L292.428 179.648L294.475 182.18C295.746 183.743 296.735 185.977 297.017 188.062C298.288 196.998 291.863 204.444 283.462 203.699Z" fill="black"/>
<path d="M219.072 168.729C216.965 177.505 216.674 199.555 218.563 209.564C221.034 222.692 227.72 238.939 235.204 250.254C242.108 260.626 254.898 273.174 267.251 281.66L272.483 285.287L266.96 287.825C263.908 289.204 258.168 291.452 254.098 292.758L246.759 295.151L241.236 292.25C216.311 279.267 198.289 260.191 191.313 239.374C185.935 223.272 185.79 203.254 191.022 184.25C191.749 181.494 192.475 179.173 192.548 179.101C195.673 176.925 216.601 167.278 218.491 167.205C219.145 167.133 219.29 167.641 219.072 168.729Z" fill="#FCC700"/>
<path d="M160.937 214.278C161.373 247.208 175.762 276.075 202.576 297.835L205.846 300.518L201.486 300.156C174.236 297.69 155.705 288.116 147.712 272.304C143.061 263.092 141.535 257.435 141.535 249.529C141.535 235.965 147.203 222.039 158.103 208.621C159.484 206.953 160.646 205.575 160.719 205.575C160.719 205.575 160.865 209.491 160.937 214.278Z" fill="#FCC700"/>
<path d="M132.451 97.0674C153.525 101.274 170.021 108.455 187.17 120.93C193.347 125.427 210.57 141.747 210.57 143.125C210.57 144.213 198.143 151.684 190.223 155.383C160.719 169.164 125.693 171.122 94.5182 160.75C78.0224 155.238 65.2328 147.985 50.7717 136.017C42.5602 129.271 33.3313 119.407 34.4213 118.682C34.8573 118.392 36.6014 117.159 38.4181 115.853C43.5776 112.299 58.2566 105.191 66.3228 102.362C74.825 99.461 81.2198 97.8653 90.3034 96.4146C99.0963 95.0365 124.312 95.3992 132.451 97.0674Z" fill="white"/>
<path d="M117.554 29.6856C142.915 31.4988 172.055 44.9172 192.911 64.4282C210.497 80.9654 223.723 103.233 229.536 126.153C230.336 129.344 231.208 132.608 231.426 133.406C231.644 134.204 229.9 132.39 227.502 129.417C222.269 122.961 209.044 110.051 202.94 105.409C181.284 89.0164 158.103 79.007 132.814 75.0903C127.437 74.2925 121.696 73.4946 120.17 73.4221C117.409 73.2045 117.263 73.0594 115.955 69.2153C111.668 56.8124 109.561 46.8755 108.398 34.1825L107.962 28.525L109.633 28.8877C110.578 29.1053 114.139 29.3954 117.554 29.6856Z" fill="white"/>
<path fill-rule="evenodd" clip-rule="evenodd" d="M284.328 159.517C293.121 160.75 298.935 162.563 307.582 166.77C331.199 178.23 340.574 200.642 332.072 225.448C330.109 231.178 330.037 231.323 326.621 232.556C320.517 234.805 314.05 235.53 307.364 234.587C301.914 233.789 301.187 233.789 299.952 234.95C297.845 236.908 298.063 240.1 300.461 241.623C302.132 242.711 304.094 242.928 312.814 242.928C318.555 242.928 323.133 243.146 323.061 243.436C322.407 245.104 312.814 256.347 308.454 260.481C300.969 267.517 298.135 269.62 296.464 269.112C293.848 268.242 282.948 261.279 276.989 256.637C262.818 245.685 251.119 229.22 246.541 214.133C242.326 200.135 242.399 180.914 246.686 164.087L247.849 159.227L253.008 158.864C255.842 158.574 259.33 158.284 260.711 158.212C264.998 157.776 276.698 158.502 284.328 159.517ZM283.462 203.699C270.047 202.508 267.012 183.594 279.296 177.712C280.849 176.967 282.191 176.297 282.261 176.297C282.403 176.297 281.838 177.414 281.061 178.68C279.367 181.584 279.296 183.148 280.708 185.903C282.12 188.881 285.368 189.998 288.474 188.658C291.228 187.392 292.357 185.53 292.357 182.105L292.428 179.648L294.475 182.18C295.746 183.743 296.735 185.977 297.017 188.062C298.288 196.998 291.863 204.444 283.462 203.699Z" fill="white"/>
<path d="M95.3902 7.49089C91.9748 8.36127 90.1581 9.52178 88.3413 12.0604C86.888 14.0913 86.67 15.5419 86.452 22.1423C85.9433 35.7057 88.196 52.8957 92.1928 66.6767C92.9921 69.4329 93.7915 72.2616 94.0095 72.9144C94.3002 73.9298 93.5008 74.2199 89.4314 74.6551C69.4475 76.686 43.7956 86.3328 24.9018 99.0258C11.0947 108.31 7.02531 113.097 8.18801 118.972C9.20537 124.629 27.0818 145.083 40.5255 155.963C60.8727 172.5 86.5973 183.598 114.357 187.877C122.714 189.11 146.258 189.545 150.982 188.53L153.525 187.949L149.165 192.591C139.936 202.528 131.724 216.527 127.292 230.163C125.257 236.255 124.676 239.374 124.312 245.975L123.876 254.171L119.589 256.492C114.502 259.175 111.45 262.439 108.979 267.807C105.709 275.06 107.817 283.909 113.921 288.261C118.935 291.815 128.091 292.903 134.559 290.727L137.974 289.566L142.843 294.208C154.615 305.523 169.803 312.559 189.569 315.895C197.489 317.273 200.469 317.418 213.84 317.056C222.633 316.838 231.571 316.185 234.914 315.605C263.763 310.165 293.63 296.312 313.105 279.339C332.435 262.512 344.861 244.161 350.239 224.723C352.564 216.164 352.564 199.555 350.239 191.504C345.442 174.966 333.67 161.04 317.247 152.264L312.887 149.943L316.448 146.389C320.299 142.472 325.822 139.208 329.819 138.483C332.289 138.048 332.507 138.12 333.888 140.731C338.684 150.015 353 146.534 353 136.017C353 126.95 342.826 122.526 328.656 125.427C320.372 127.096 314.486 130.142 308.164 136.162L302.786 141.239L303.295 138.048C303.949 133.768 305.547 129.126 307.946 124.339C309.98 120.35 314.849 114.185 315.939 114.185C316.23 114.185 317.61 115.2 318.918 116.433C321.898 119.19 323.86 119.987 327.639 119.987C331.345 119.987 334.688 118.537 337.158 115.926C344.861 107.657 338.975 94.6013 327.493 94.6013C325.459 94.6013 322.407 95.6168 317.61 97.9378C302.277 105.264 291.668 120.785 290.069 138.12L289.56 142.98L286.581 142.327C284.982 141.964 277.134 141.529 269.213 141.239C255.334 140.804 254.898 140.804 254.607 139.281C250.683 118.247 248.575 110.993 242.907 98.1554C223.505 53.9111 184.482 21.6345 137.611 10.8273C125.039 7.99861 100.768 6.04026 95.3902 7.49089ZM117.554 29.6856C142.915 31.4988 172.055 44.9172 192.911 64.4282C210.497 80.9654 223.723 103.233 229.536 126.153C230.336 129.344 231.208 132.608 231.426 133.406C231.644 134.204 229.9 132.39 227.502 129.417C222.269 122.961 209.044 110.051 202.94 105.409C181.284 89.0164 158.103 79.007 132.814 75.0903C127.437 74.2925 121.696 73.4946 120.17 73.4221C117.409 73.2045 117.263 73.0594 115.955 69.2153C111.668 56.8124 109.561 46.8755 108.398 34.1825L107.962 28.525L109.633 28.8877C110.578 29.1053 114.139 29.3954 117.554 29.6856ZM132.451 97.0674C153.525 101.274 170.021 108.455 187.17 120.93C193.347 125.427 210.57 141.747 210.57 143.125C210.57 144.213 198.143 151.684 190.223 155.383C160.719 169.164 125.693 171.122 94.5182 160.75C78.0224 155.238 65.2328 147.985 50.7717 136.017C42.5602 129.271 33.3313 119.407 34.4213 118.682C34.8573 118.392 36.6014 117.159 38.4181 115.853C43.5776 112.299 58.2566 105.191 66.3228 102.362C74.825 99.461 81.2198 97.8653 90.3034 96.4146C99.0963 95.0365 124.312 95.3992 132.451 97.0674ZM284.328 159.517C293.121 160.75 298.935 162.563 307.582 166.77C331.199 178.23 340.574 200.642 332.072 225.448C330.109 231.178 330.037 231.323 326.621 232.556C320.517 234.805 314.05 235.53 307.364 234.587C301.914 233.789 301.187 233.789 299.952 234.95C297.845 236.908 298.063 240.1 300.461 241.623C302.132 242.711 304.094 242.928 312.814 242.928C318.555 242.928 323.133 243.146 323.061 243.436C322.407 245.104 312.814 256.347 308.454 260.481C300.969 267.517 298.135 269.62 296.464 269.112C293.848 268.242 282.948 261.279 276.989 256.637C262.818 245.685 251.119 229.22 246.541 214.133C242.326 200.135 242.399 180.914 246.686 164.087L247.849 159.227L253.008 158.864C255.842 158.574 259.33 158.284 260.711 158.212C264.998 157.776 276.698 158.502 284.328 159.517ZM219.072 168.729C216.965 177.505 216.674 199.555 218.563 209.564C221.034 222.692 227.72 238.939 235.204 250.254C242.108 260.626 254.898 273.174 267.251 281.66L272.483 285.287L266.96 287.825C263.908 289.204 258.168 291.452 254.098 292.758L246.759 295.151L241.236 292.25C216.311 279.267 198.289 260.191 191.313 239.374C185.935 223.272 185.79 203.254 191.022 184.25C191.749 181.494 192.475 179.173 192.548 179.101C195.673 176.925 216.601 167.278 218.491 167.205C219.145 167.133 219.29 167.641 219.072 168.729ZM160.937 214.278C161.373 247.208 175.762 276.075 202.576 297.835L205.846 300.518L201.486 300.156C174.236 297.69 155.705 288.116 147.712 272.304C143.061 263.092 141.535 257.435 141.535 249.529C141.535 235.965 147.203 222.039 158.103 208.621C159.484 206.953 160.646 205.575 160.719 205.575C160.719 205.575 160.865 209.491 160.937 214.278Z" stroke="white" stroke-width="14" mask="url(#path-3-outside-1_147_21)"/>
<path d="M283.462 203.699C270.047 202.508 267.012 183.594 279.296 177.712C280.849 176.967 282.191 176.297 282.261 176.297C282.403 176.297 281.838 177.414 281.061 178.68C279.367 181.584 279.296 183.148 280.708 185.903C282.12 188.881 285.368 189.998 288.474 188.658C291.228 187.392 292.357 185.53 292.357 182.105L292.428 179.648L294.475 182.18C295.746 183.743 296.735 185.977 297.017 188.062C298.288 196.998 291.863 204.444 283.462 203.699Z" stroke="white" stroke-width="14" mask="url(#path-3-outside-1_147_21)"/>
<path d="M219.072 168.729C216.965 177.505 216.674 199.555 218.563 209.564C221.034 222.692 227.72 238.939 235.204 250.254C242.108 260.626 254.898 273.174 267.251 281.66L272.483 285.287L266.96 287.825C263.908 289.204 258.168 291.452 254.098 292.758L246.759 295.151L241.236 292.25C216.311 279.267 198.289 260.191 191.313 239.374C185.935 223.272 185.79 203.254 191.022 184.25C191.749 181.494 192.475 179.173 192.548 179.101C195.673 176.925 216.601 167.278 218.491 167.205C219.145 167.133 219.29 167.641 219.072 168.729Z" stroke="white" stroke-width="14" mask="url(#path-3-outside-1_147_21)"/>
<path d="M160.937 214.278C161.373 247.208 175.762 276.075 202.576 297.835L205.846 300.518L201.486 300.156C174.236 297.69 155.705 288.116 147.712 272.304C143.061 263.092 141.535 257.435 141.535 249.529C141.535 235.965 147.203 222.039 158.103 208.621C159.484 206.953 160.646 205.575 160.719 205.575C160.719 205.575 160.865 209.491 160.937 214.278Z" stroke="white" stroke-width="14" mask="url(#path-3-outside-1_147_21)"/>
<path d="M132.451 97.0674C153.525 101.274 170.021 108.455 187.17 120.93C193.347 125.427 210.57 141.747 210.57 143.125C210.57 144.213 198.143 151.684 190.223 155.383C160.719 169.164 125.693 171.122 94.5182 160.75C78.0224 155.238 65.2328 147.985 50.7717 136.017C42.5602 129.271 33.3313 119.407 34.4213 118.682C34.8573 118.392 36.6014 117.159 38.4181 115.853C43.5776 112.299 58.2566 105.191 66.3228 102.362C74.825 99.461 81.2198 97.8653 90.3034 96.4146C99.0963 95.0365 124.312 95.3992 132.451 97.0674Z" stroke="white" stroke-width="14" mask="url(#path-3-outside-1_147_21)"/>
<path d="M117.554 29.6856C142.915 31.4988 172.055 44.9172 192.911 64.4282C210.497 80.9654 223.723 103.233 229.536 126.153C230.336 129.344 231.208 132.608 231.426 133.406C231.644 134.204 229.9 132.39 227.502 129.417C222.269 122.961 209.044 110.051 202.94 105.409C181.284 89.0164 158.103 79.007 132.814 75.0903C127.437 74.2925 121.696 73.4946 120.17 73.4221C117.409 73.2045 117.263 73.0594 115.955 69.2153C111.668 56.8124 109.561 46.8755 108.398 34.1825L107.962 28.525L109.633 28.8877C110.578 29.1053 114.139 29.3954 117.554 29.6856Z" stroke="white" stroke-width="14" mask="url(#path-3-outside-1_147_21)"/>
<path fill-rule="evenodd" clip-rule="evenodd" d="M284.328 159.517C293.121 160.75 298.935 162.563 307.582 166.77C331.199 178.23 340.574 200.642 332.072 225.448C330.109 231.178 330.037 231.323 326.621 232.556C320.517 234.805 314.05 235.53 307.364 234.587C301.914 233.789 301.187 233.789 299.952 234.95C297.845 236.908 298.063 240.1 300.461 241.623C302.132 242.711 304.094 242.928 312.814 242.928C318.555 242.928 323.133 243.146 323.061 243.436C322.407 245.104 312.814 256.347 308.454 260.481C300.969 267.517 298.135 269.62 296.464 269.112C293.848 268.242 282.948 261.279 276.989 256.637C262.818 245.685 251.119 229.22 246.541 214.133C242.326 200.135 242.399 180.914 246.686 164.087L247.849 159.227L253.008 158.864C255.842 158.574 259.33 158.284 260.711 158.212C264.998 157.776 276.698 158.502 284.328 159.517ZM283.462 203.699C270.047 202.508 267.012 183.594 279.296 177.712C280.849 176.967 282.191 176.297 282.261 176.297C282.403 176.297 281.838 177.414 281.061 178.68C279.367 181.584 279.296 183.148 280.708 185.903C282.12 188.881 285.368 189.998 288.474 188.658C291.228 187.392 292.357 185.53 292.357 182.105L292.428 179.648L294.475 182.18C295.746 183.743 296.735 185.977 297.017 188.062C298.288 196.998 291.863 204.444 283.462 203.699Z" stroke="white" stroke-width="14" mask="url(#path-3-outside-1_147_21)"/>
</svg>
