<svg width="1541" height="325" fill="none" xmlns="http://www.w3.org/2000/svg"><path d="M1489.9 52.232c-11.74 2.103-21.98 9.011-26.3 17.722-2.91 6.107-3.11 16.82-.3 22.728 4.42 9.111 12.45 13.617 35.13 20.125 13.35 3.804 18.07 8.31 15.56 14.818-3.41 9.011-25.59 6.708-42.66-4.406-3.61-2.403-6.72-4.105-6.92-3.904-.2.2-2.41 4.505-5.02 9.611l-4.62 9.212 4.32 2.903c28 19.224 68.96 16.22 79.6-5.707 2.91-5.807 3.11-16.72.4-22.928-4.12-9.411-11.95-14.618-30.32-19.824-15.86-4.506-20.88-7.81-20.88-13.817 0-9.011 18.98-8.71 37.55.6 3.21 1.603 5.92 2.804 6.12 2.604.2-.2 2.31-4.706 4.92-10.113l4.51-9.812-7.22-3.404c-4.02-1.902-9.94-4.105-13.25-5.006-7.63-1.903-23.49-2.703-30.62-1.402zM449 102.594v50.662h27.905c19.975 0 29.711-.4 34.429-1.402 12.045-2.603 19.774-7.809 23.588-16.119 6.023-12.916 0-28.736-12.948-34.142l-4.517-1.903 4.617-2.503c3.011-1.602 5.922-4.305 8.03-7.409 2.811-4.305 3.212-5.607 3.212-11.914 0-8.711-2.71-14.018-9.736-18.623-8.834-5.907-11.945-6.308-44.668-6.909l-29.912-.4v50.662zm54.304-28.735c5.922 3.504 5.922 13.016.1 17.02-2.309 1.502-4.718 1.803-15.759 1.803h-13.049l-.301-10.313-.301-10.212h13.249c10.64 0 13.752.3 16.061 1.702zm.903 38.948c8.933 3.604 9.235 14.718.602 18.823-2.61 1.201-6.524 1.602-17.064 1.602h-13.651v-22.027h13.049c9.636 0 14.053.4 17.064 1.602zm65.245-10.113v50.562h80.301v-20.024h-55.308l.301-10.313.302-10.213 23.889-.3 23.789-.2V93.182l-23.789-.2-23.889-.3V72.657l26.9-.3 26.801-.2V52.132h-79.297v50.562zm114.429 0v50.562h80.301v-20.024h-55.308l.301-10.313.302-10.213 23.889-.3 23.789-.2V93.182l-23.789-.2-23.889-.3V72.657l26.9-.3 26.801-.2V52.132h-79.297v50.562zm193.726-48.26c-13.25 4.506-23.99 13.317-29.812 24.43-4.718 9.012-5.621 13.918-5.119 26.634.401 10.613.703 11.914 4.115 19.123 4.517 9.612 14.354 19.724 22.987 23.929 15.458 7.41 33.124 7.41 48.481.101 6.525-3.004 17.566-10.914 17.566-12.516 0-.6-3.112-4.305-6.926-8.21l-6.825-7.008-6.324 4.105c-14.254 9.511-27.704 9.411-38.143-.401-6.625-6.208-9.435-12.816-9.435-22.427 0-26.333 28.807-38.648 49.084-20.826 2.609 2.303 5.018 3.705 5.42 3.204 4.818-5.207 13.149-15.52 13.149-16.12 0-2.703-15.659-11.915-24.994-14.718-8.431-2.503-24.993-2.103-33.224.7zm119.548-.7c-13.752 3.704-27.302 14.618-33.124 26.833-4.316 9.011-5.922 19.924-4.316 30.137 3.412 21.627 20.577 38.748 42.865 42.652 13.35 2.303 29.41-.3 40.05-6.508 10.23-6.007 18.87-16.32 22.88-27.433 2.91-8.01 3.01-25.331 0-33.341-5.72-15.72-19.37-28.135-35.83-32.44-7.53-1.903-25.2-1.903-32.525.1zm28.805 22.027c10.34 5.106 15.66 14.218 15.66 26.933 0 10.313-2.71 16.821-9.63 23.028-10.84 9.712-25.6 9.812-36.341.401-17.064-15.019-12.446-44.254 8.131-51.563 6.52-2.303 16.16-1.803 22.18 1.201zm73.48 26.933v50.762l27.4-.4c29.31-.501 32.22-1.001 43.36-6.508 6.43-3.304 16.57-13.016 19.88-19.123 7.43-13.717 7.43-35.744 0-49.361-3.62-6.608-12.15-15.019-19.07-18.723-11.45-6.008-14.36-6.408-44.17-6.909l-27.4-.5v50.762zm54-27.534c10.34 4.406 16.36 14.618 16.36 27.434 0 12.716-4.72 21.727-14.15 27.033-5.12 2.904-6.22 3.104-18.27 3.404l-12.85.401v-29.937c0-16.52.3-30.337.81-30.738.4-.5 5.72-.6 11.74-.4 8.53.4 12.25 1.001 16.36 2.803zm73.48 27.534v50.562h80.3v-20.024h-55.31l.3-10.313.3-10.213 23.89-.3 23.79-.2V93.182l-23.79-.2-23.89-.3-.3-10.313-.3-10.212h53.3V52.132h-78.29v50.562zm114.43-.1v50.662h24.99l.3-14.317.3-14.218h20.08l7.53 14.218 7.52 14.317h14.36c11.24 0 14.25-.3 13.65-1.301-.5-.601-5.22-8.11-10.64-16.621l-9.74-15.419 4.42-2.803c9.13-5.807 13.55-15.419 13.55-29.536 0-17.021-7.03-26.933-23.19-32.54-5.92-2.103-8.63-2.303-34.73-2.704l-28.4-.4v50.662zm55-28.135c4.82 2.604 7.23 7.11 7.23 13.717 0 7.109-2.51 11.815-7.63 14.418-3.31 1.802-5.72 2.103-16.46 2.103h-12.55l-.3-16.32-.3-16.42 13.35.4c10.34.3 14.05.8 16.66 2.102zM449.989 244.368v21.026h10.038v-42.052h-10.038v21.026zm45.17.1v21.126l12.346-.4c10.841-.301 12.748-.601 16.763-2.804 2.409-1.401 5.822-4.405 7.428-6.808 2.609-3.705 3.011-5.106 3.011-11.014 0-7.809-1.706-11.714-7.026-16.019-4.819-4.005-10.138-5.207-22.384-5.207h-10.138v21.126zm25.897-8.71c2.71 3.003 3.212 4.305 3.212 8.31 0 9.011-5.822 14.017-15.057 13.116l-3.513-.3-.301-11.415c-.1-6.307 0-12.114.301-12.915.402-1.202 1.807-1.302 6.324-.901 4.918.5 6.223 1.101 9.034 4.105zm45.37 8.61v21.026h33.124v-8.01h-23.087v-9.011h20.076v-8.01h-20.076v-9.011h22.083v-8.01h-32.12v21.026zm70.966-.801c-4.818 11.214-8.733 20.626-8.733 21.026 0 .501 2.309.801 5.019.801 4.918 0 5.019-.1 6.625-4.005l1.606-4.005h18.569l1.606 4.005c1.506 4.005 1.506 4.005 7.127 4.005h5.521l-3.112-7.309c-1.706-3.905-5.621-13.316-8.833-20.725l-5.621-13.517-5.521-.3-5.42-.301-8.833 20.325zm16.763-2.403c1.405 3.705 2.61 7.109 2.61 7.509 0 .401-2.711.701-5.923.701h-6.022l3.111-7.509c1.707-4.105 3.212-7.509 3.313-7.509.201 0 1.505 3.004 2.911 6.808zm57.214-16.42c-7.428 3.304-9.736 11.714-4.818 17.522 1.807 2.102 4.517 3.704 9.034 5.106 8.532 2.603 10.439 3.704 10.439 6.107 0 4.706-8.03 4.906-16.462.401l-4.617-2.403-2.007 3.905-2.008 4.005 5.22 2.603c15.257 7.709 32.823 1.402 30.514-10.914-.903-5.106-4.918-8.41-12.647-10.713-7.227-2.102-9.436-3.804-8.833-6.708.602-3.204 6.725-2.803 16.06 1.101 1.305.601 2.208-.2 3.814-3.404l2.108-4.105-3.814-1.602c-5.12-2.203-17.867-2.803-21.983-.901zm108.005-.3c-1.305.6-3.915 2.102-5.721 3.504-9.436 7.109-9.938 23.929-1.104 32.139 7.528 7.009 21.38 7.009 30.414 0 2.007-1.601 2.007-1.602-1.105-4.705l-3.111-3.204-3.413 2.102c-11.543 7.009-23.99-5.206-16.964-16.72 3.915-6.408 12.849-7.509 18.47-2.303l2.208 2.002 2.81-3.604 2.911-3.604-2.71-2.203c-5.219-4.105-16.562-5.807-22.685-3.404zm60.929 19.123c-4.818 11.214-8.733 20.626-8.733 21.026 0 .501 2.308.801 5.019.801 4.918 0 5.018-.1 6.624-4.005l1.607-4.005h18.569l1.606 4.005c1.506 4.005 1.506 4.005 7.127 4.005h5.521l-3.112-7.309c-1.707-3.905-5.621-13.316-8.833-20.725l-5.621-13.517-5.521-.3-5.42-.301-8.833 20.325zm16.762-2.403c1.406 3.705 2.61 7.109 2.61 7.509 0 .401-2.71.701-5.922.701h-6.023l3.112-7.509c1.706-4.105 3.212-7.509 3.313-7.509.2 0 1.505 3.004 2.91 6.808zm50.791 3.204v21.026h9.034v-12.515c0-6.909.401-12.516.803-12.516.401 0 5.019 5.607 10.037 12.516l9.335 12.515h8.934v-42.052h-9.034v12.516c0 6.908-.402 12.515-.803 12.515-.402 0-5.019-5.607-10.138-12.515l-9.335-12.516h-8.833v21.026zm112.424 0v21.026h9.93l.31-7.81.3-7.709 9.33-.3 9.24-.301v-7.91h-19.08v-10.012h20.08v-8.01h-30.11v21.026zm61.23 0v21.026h28.1v-9.011h-17.06v-33.041h-11.04v21.026zm56.31-18.823c.6 1.302 4.01 7.509 7.53 13.917 6.22 11.214 6.42 11.915 6.42 18.823v7.109h11.04v-7.109c0-6.708.3-7.709 5.62-17.822 3.11-5.807 6.63-12.114 7.63-13.917l2.01-3.204h-10.74l-4.82 9.112c-2.71 5.006-5.22 8.81-5.52 8.41-.3-.301-2.71-4.305-5.22-8.811l-4.52-8.21-5.32-.3c-5.32-.301-5.32-.301-4.11 2.002z" fill="#fff"/><path d="M180.759 316.517c78.843 0 142.758-63.915 142.758-142.758C323.517 94.915 259.602 31 180.759 31 101.915 31 38 94.915 38 173.759c0 78.843 63.915 142.758 142.759 142.758z" fill="#FCC700"/><mask id="a" maskUnits="userSpaceOnUse" x="0" y="-1" width="360" height="326" fill="#000"><path fill="#fff" d="M0-1h360v326H0z"/><path d="M95.39 7.49c-3.415.871-5.232 2.032-7.049 4.57-1.453 2.031-1.671 3.482-1.889 10.082-.509 13.564 1.744 30.754 5.74 44.535.8 2.756 1.6 5.585 1.818 6.237.29 1.016-.51 1.306-4.579 1.741-19.983 2.031-45.635 11.678-64.53 24.37-13.806 9.285-17.876 14.072-16.713 19.947 1.017 5.657 18.894 26.111 32.337 36.991 20.348 16.537 46.072 27.635 73.832 31.914 8.357 1.233 31.901 1.668 36.625.653l2.543-.581-4.36 4.642c-9.229 9.937-17.441 23.936-21.873 37.572-2.035 6.092-2.616 9.211-2.98 15.812l-.436 8.196-4.287 2.321c-5.087 2.683-8.139 5.947-10.61 11.315-3.27 7.253-1.162 16.102 4.942 20.454 5.014 3.554 14.17 4.642 20.638 2.466l3.415-1.161 4.869 4.642c11.772 11.315 26.96 18.351 46.726 21.687 7.92 1.378 10.9 1.523 24.271 1.161 8.793-.218 17.731-.871 21.074-1.451 28.849-5.44 58.716-19.293 78.191-36.266 19.33-16.827 31.756-35.178 37.134-54.616 2.325-8.559 2.325-25.168 0-33.219-4.797-16.538-16.569-30.464-32.992-39.24l-4.36-2.321 3.561-3.554c3.851-3.917 9.374-7.181 13.371-7.906 2.47-.435 2.688-.363 4.069 2.248 4.796 9.284 19.112 5.803 19.112-4.714 0-9.067-10.174-13.491-24.344-10.59-8.284 1.669-14.17 4.715-20.492 10.735l-5.378 5.077.509-3.191c.654-4.28 2.252-8.922 4.651-13.709 2.034-3.989 6.903-10.154 7.993-10.154.291 0 1.671 1.015 2.979 2.248 2.98 2.757 4.942 3.554 8.721 3.554 3.706 0 7.049-1.45 9.519-4.061 7.703-8.269 1.817-21.325-9.665-21.325-2.034 0-5.086 1.016-9.883 3.337-15.333 7.326-25.942 22.847-27.541 40.182l-.509 4.86-2.979-.653c-1.599-.363-9.447-.798-17.368-1.088-13.879-.435-14.315-.435-14.606-1.958-3.924-21.034-6.032-28.288-11.7-41.126-19.402-44.244-58.425-76.52-105.296-87.328C125.039 8 100.768 6.04 95.391 7.491zm22.164 22.196c25.361 1.813 54.501 15.231 75.357 34.742 17.586 16.537 30.812 38.805 36.625 61.725.8 3.191 1.672 6.455 1.89 7.253.218.798-1.526-1.016-3.924-3.989-5.233-6.456-18.458-19.366-24.562-24.008-21.656-16.393-44.837-26.402-70.126-30.319-5.377-.797-11.118-1.595-12.644-1.668-2.761-.218-2.907-.363-4.215-4.207-4.287-12.403-6.394-22.34-7.557-35.033l-.436-5.657 1.671.363c.945.217 4.506.507 7.921.798zm14.897 67.381c21.074 4.207 37.57 11.388 54.719 23.863 6.177 4.497 23.4 20.817 23.4 22.195 0 1.088-12.427 8.559-20.347 12.258-29.504 13.781-64.53 15.739-95.705 5.367-16.496-5.512-29.285-12.765-43.746-24.733-8.212-6.746-17.44-16.61-16.35-17.335.435-.29 2.18-1.523 3.996-2.829 5.16-3.554 19.839-10.662 27.905-13.491 8.502-2.901 14.897-4.497 23.98-5.947 8.793-1.379 34.009-1.016 42.148.652zm151.877 62.45c8.793 1.233 14.607 3.046 23.254 7.253 23.617 11.46 32.992 33.872 24.49 58.678-1.963 5.73-2.035 5.875-5.451 7.108-6.104 2.249-12.571 2.974-19.257 2.031-5.45-.798-6.177-.798-7.412.363-2.107 1.958-1.889 5.15.509 6.673 1.671 1.088 3.633 1.305 12.353 1.305 5.741 0 10.319.218 10.247.508-.654 1.668-10.247 12.911-14.607 17.045-7.485 7.036-10.319 9.139-11.99 8.631-2.616-.87-13.516-7.833-19.475-12.475-14.171-10.952-25.87-27.417-30.448-42.504-4.215-13.998-4.142-33.219.145-50.046l1.163-4.86 5.159-.363c2.834-.29 6.322-.58 7.703-.652 4.287-.436 15.987.29 23.617 1.305zm-65.256 9.212c-2.107 8.776-2.398 30.826-.509 40.835 2.471 13.128 9.157 29.375 16.641 40.69 6.904 10.372 19.694 22.92 32.047 31.406l5.232 3.627-5.523 2.538c-3.052 1.379-8.792 3.627-12.862 4.933l-7.339 2.393-5.523-2.901c-24.925-12.983-42.947-32.059-49.923-52.876-5.378-16.102-5.523-36.12-.291-55.124.727-2.756 1.453-5.077 1.526-5.149 3.125-2.176 24.053-11.823 25.943-11.896.654-.072.799.436.581 1.524zm-58.135 45.549c.436 32.93 14.825 61.797 41.639 83.557l3.27 2.683-4.36-.362c-27.25-2.466-45.781-12.04-53.774-27.852-4.651-9.212-6.177-14.869-6.177-22.775 0-13.564 5.668-27.49 16.568-40.908 1.381-1.668 2.543-3.046 2.616-3.046 0 0 .146 3.916.218 8.703z"/><path d="M283.462 203.699c-13.415-1.191-16.45-20.105-4.166-25.987 1.553-.745 2.895-1.415 2.965-1.415.142 0-.423 1.117-1.2 2.383-1.694 2.904-1.765 4.468-.353 7.223 1.412 2.978 4.66 4.095 7.766 2.755 2.754-1.266 3.883-3.128 3.883-6.553l.071-2.457 2.047 2.532c1.271 1.563 2.26 3.797 2.542 5.882 1.271 8.936-5.154 16.382-13.555 15.637zm-64.39-34.97c-2.107 8.776-2.398 30.826-.509 40.835 2.471 13.128 9.157 29.375 16.641 40.69 6.904 10.372 19.694 22.92 32.047 31.406l5.232 3.627-5.523 2.538c-3.052 1.379-8.792 3.627-12.862 4.933l-7.339 2.393-5.523-2.901c-24.925-12.983-42.947-32.059-49.923-52.876-5.378-16.102-5.523-36.12-.291-55.124.727-2.756 1.453-5.077 1.526-5.149 3.125-2.176 24.053-11.823 25.943-11.896.654-.072.799.436.581 1.524zm-58.135 45.549c.436 32.93 14.825 61.797 41.639 83.557l3.27 2.683-4.36-.362c-27.25-2.466-45.781-12.04-53.774-27.852-4.651-9.212-6.177-14.869-6.177-22.775 0-13.564 5.668-27.49 16.568-40.908 1.381-1.668 2.543-3.046 2.616-3.046 0 0 .146 3.916.218 8.703zM132.451 97.067c21.074 4.207 37.57 11.388 54.719 23.863 6.177 4.497 23.4 20.817 23.4 22.195 0 1.088-12.427 8.559-20.347 12.258-29.504 13.781-64.53 15.739-95.705 5.367-16.496-5.512-29.285-12.765-43.746-24.733-8.212-6.746-17.44-16.61-16.35-17.335.435-.29 2.18-1.523 3.996-2.829 5.16-3.554 19.839-10.662 27.905-13.491 8.502-2.901 14.897-4.497 23.98-5.947 8.793-1.379 34.009-1.016 42.148.652zm-14.897-67.381c25.361 1.813 54.501 15.231 75.357 34.742 17.586 16.537 30.812 38.805 36.625 61.725.8 3.191 1.672 6.455 1.89 7.253.218.798-1.526-1.016-3.924-3.989-5.233-6.456-18.458-19.366-24.562-24.008-21.656-16.393-44.837-26.402-70.126-30.319-5.377-.797-11.118-1.595-12.644-1.668-2.761-.218-2.907-.363-4.215-4.207-4.287-12.403-6.394-22.34-7.557-35.033l-.436-5.657 1.671.363c.945.217 4.506.507 7.921.798z"/><path fill-rule="evenodd" clip-rule="evenodd" d="M284.328 159.517c8.793 1.233 14.607 3.046 23.254 7.253 23.617 11.46 32.992 33.872 24.49 58.678-1.963 5.73-2.035 5.875-5.451 7.108-6.104 2.249-12.571 2.974-19.257 2.031-5.45-.798-6.177-.798-7.412.363-2.107 1.958-1.889 5.15.509 6.673 1.671 1.088 3.633 1.305 12.353 1.305 5.741 0 10.319.218 10.247.508-.654 1.668-10.247 12.911-14.607 17.045-7.485 7.036-10.319 9.139-11.99 8.631-2.616-.87-13.516-7.833-19.475-12.475-14.171-10.952-25.87-27.417-30.448-42.504-4.215-13.998-4.142-33.219.145-50.046l1.163-4.86 5.159-.363c2.834-.29 6.322-.58 7.703-.652 4.287-.436 15.987.29 23.617 1.305zm-.866 44.182c-13.415-1.191-16.45-20.105-4.166-25.987 1.553-.745 2.895-1.415 2.965-1.415.142 0-.423 1.117-1.2 2.383-1.694 2.904-1.765 4.468-.353 7.223 1.412 2.978 4.66 4.095 7.766 2.755 2.754-1.266 3.883-3.128 3.883-6.553l.071-2.457 2.047 2.532c1.271 1.563 2.26 3.797 2.542 5.882 1.271 8.936-5.154 16.382-13.555 15.637z"/></mask><path d="M95.39 7.49c-3.415.871-5.232 2.032-7.049 4.57-1.453 2.031-1.671 3.482-1.889 10.082-.509 13.564 1.744 30.754 5.74 44.535.8 2.756 1.6 5.585 1.818 6.237.29 1.016-.51 1.306-4.579 1.741-19.983 2.031-45.635 11.678-64.53 24.37-13.806 9.285-17.876 14.072-16.713 19.947 1.017 5.657 18.894 26.111 32.337 36.991 20.348 16.537 46.072 27.635 73.832 31.914 8.357 1.233 31.901 1.668 36.625.653l2.543-.581-4.36 4.642c-9.229 9.937-17.441 23.936-21.873 37.572-2.035 6.092-2.616 9.211-2.98 15.812l-.436 8.196-4.287 2.321c-5.087 2.683-8.139 5.947-10.61 11.315-3.27 7.253-1.162 16.102 4.942 20.454 5.014 3.554 14.17 4.642 20.638 2.466l3.415-1.161 4.869 4.642c11.772 11.315 26.96 18.351 46.726 21.687 7.92 1.378 10.9 1.523 24.271 1.161 8.793-.218 17.731-.871 21.074-1.451 28.849-5.44 58.716-19.293 78.191-36.266 19.33-16.827 31.756-35.178 37.134-54.616 2.325-8.559 2.325-25.168 0-33.219-4.797-16.538-16.569-30.464-32.992-39.24l-4.36-2.321 3.561-3.554c3.851-3.917 9.374-7.181 13.371-7.906 2.47-.435 2.688-.363 4.069 2.248 4.796 9.284 19.112 5.803 19.112-4.714 0-9.067-10.174-13.491-24.344-10.59-8.284 1.669-14.17 4.715-20.492 10.735l-5.378 5.077.509-3.191c.654-4.28 2.252-8.922 4.651-13.709 2.034-3.989 6.903-10.154 7.993-10.154.291 0 1.671 1.015 2.979 2.248 2.98 2.757 4.942 3.554 8.721 3.554 3.706 0 7.049-1.45 9.519-4.061 7.703-8.269 1.817-21.325-9.665-21.325-2.034 0-5.086 1.016-9.883 3.337-15.333 7.326-25.942 22.847-27.541 40.182l-.509 4.86-2.979-.653c-1.599-.363-9.447-.798-17.368-1.088-13.879-.435-14.315-.435-14.606-1.958-3.924-21.034-6.032-28.288-11.7-41.126-19.402-44.244-58.425-76.52-105.296-87.328C125.039 8 100.768 6.04 95.391 7.491zm22.164 22.196c25.361 1.813 54.501 15.231 75.357 34.742 17.586 16.537 30.812 38.805 36.625 61.725.8 3.191 1.672 6.455 1.89 7.253.218.798-1.526-1.016-3.924-3.989-5.233-6.456-18.458-19.366-24.562-24.008-21.656-16.393-44.837-26.402-70.126-30.319-5.377-.797-11.118-1.595-12.644-1.668-2.761-.218-2.907-.363-4.215-4.207-4.287-12.403-6.394-22.34-7.557-35.033l-.436-5.657 1.671.363c.945.217 4.506.507 7.921.798zm14.897 67.381c21.074 4.207 37.57 11.388 54.719 23.863 6.177 4.497 23.4 20.817 23.4 22.195 0 1.088-12.427 8.559-20.347 12.258-29.504 13.781-64.53 15.739-95.705 5.367-16.496-5.512-29.285-12.765-43.746-24.733-8.212-6.746-17.44-16.61-16.35-17.335.435-.29 2.18-1.523 3.996-2.829 5.16-3.554 19.839-10.662 27.905-13.491 8.502-2.901 14.897-4.497 23.98-5.947 8.793-1.379 34.009-1.016 42.148.652zm151.877 62.45c8.793 1.233 14.607 3.046 23.254 7.253 23.617 11.46 32.992 33.872 24.49 58.678-1.963 5.73-2.035 5.875-5.451 7.108-6.104 2.249-12.571 2.974-19.257 2.031-5.45-.798-6.177-.798-7.412.363-2.107 1.958-1.889 5.15.509 6.673 1.671 1.088 3.633 1.305 12.353 1.305 5.741 0 10.319.218 10.247.508-.654 1.668-10.247 12.911-14.607 17.045-7.485 7.036-10.319 9.139-11.99 8.631-2.616-.87-13.516-7.833-19.475-12.475-14.171-10.952-25.87-27.417-30.448-42.504-4.215-13.998-4.142-33.219.145-50.046l1.163-4.86 5.159-.363c2.834-.29 6.322-.58 7.703-.652 4.287-.436 15.987.29 23.617 1.305zm-65.256 9.212c-2.107 8.776-2.398 30.826-.509 40.835 2.471 13.128 9.157 29.375 16.641 40.69 6.904 10.372 19.694 22.92 32.047 31.406l5.232 3.627-5.523 2.538c-3.052 1.379-8.792 3.627-12.862 4.933l-7.339 2.393-5.523-2.901c-24.925-12.983-42.947-32.059-49.923-52.876-5.378-16.102-5.523-36.12-.291-55.124.727-2.756 1.453-5.077 1.526-5.149 3.125-2.176 24.053-11.823 25.943-11.896.654-.072.799.436.581 1.524zm-58.135 45.549c.436 32.93 14.825 61.797 41.639 83.557l3.27 2.683-4.36-.362c-27.25-2.466-45.781-12.04-53.774-27.852-4.651-9.212-6.177-14.869-6.177-22.775 0-13.564 5.668-27.49 16.568-40.908 1.381-1.668 2.543-3.046 2.616-3.046 0 0 .146 3.916.218 8.703z" fill="#000"/><path d="M283.462 203.699c-13.415-1.191-16.45-20.105-4.166-25.987 1.553-.745 2.895-1.415 2.965-1.415.142 0-.423 1.117-1.2 2.383-1.694 2.904-1.765 4.468-.353 7.223 1.412 2.978 4.66 4.095 7.766 2.755 2.754-1.266 3.883-3.128 3.883-6.553l.071-2.457 2.047 2.532c1.271 1.563 2.26 3.797 2.542 5.882 1.271 8.936-5.154 16.382-13.555 15.637z" fill="#000"/><path d="M219.072 168.729c-2.107 8.776-2.398 30.826-.509 40.835 2.471 13.128 9.157 29.375 16.641 40.69 6.904 10.372 19.694 22.92 32.047 31.406l5.232 3.627-5.523 2.538c-3.052 1.379-8.792 3.627-12.862 4.933l-7.339 2.393-5.523-2.901c-24.925-12.983-42.947-32.059-49.923-52.876-5.378-16.102-5.523-36.12-.291-55.124.727-2.756 1.453-5.077 1.526-5.149 3.125-2.176 24.053-11.823 25.943-11.896.654-.072.799.436.581 1.524zm-58.135 45.549c.436 32.93 14.825 61.797 41.639 83.557l3.27 2.683-4.36-.362c-27.25-2.466-45.781-12.04-53.774-27.852-4.651-9.212-6.177-14.869-6.177-22.775 0-13.564 5.668-27.49 16.568-40.908 1.381-1.668 2.543-3.046 2.616-3.046 0 0 .146 3.916.218 8.703z" fill="#FCC700"/><path d="M132.451 97.067c21.074 4.207 37.57 11.388 54.719 23.863 6.177 4.497 23.4 20.817 23.4 22.195 0 1.088-12.427 8.559-20.347 12.258-29.504 13.781-64.53 15.739-95.705 5.367-16.496-5.512-29.285-12.765-43.746-24.733-8.212-6.746-17.44-16.61-16.35-17.335.435-.29 2.18-1.523 3.996-2.829 5.16-3.554 19.839-10.662 27.905-13.491 8.502-2.901 14.897-4.497 23.98-5.947 8.793-1.379 34.009-1.016 42.148.652zm-14.897-67.381c25.361 1.813 54.501 15.231 75.357 34.742 17.586 16.537 30.812 38.805 36.625 61.725.8 3.191 1.672 6.455 1.89 7.253.218.798-1.526-1.016-3.924-3.989-5.233-6.456-18.458-19.366-24.562-24.008-21.656-16.393-44.837-26.402-70.126-30.319-5.377-.797-11.118-1.595-12.644-1.668-2.761-.218-2.907-.363-4.215-4.207-4.287-12.403-6.394-22.34-7.557-35.033l-.436-5.657 1.671.363c.945.217 4.506.507 7.921.798z" fill="#fff"/><path fill-rule="evenodd" clip-rule="evenodd" d="M284.328 159.517c8.793 1.233 14.607 3.046 23.254 7.253 23.617 11.46 32.992 33.872 24.49 58.678-1.963 5.73-2.035 5.875-5.451 7.108-6.104 2.249-12.571 2.974-19.257 2.031-5.45-.798-6.177-.798-7.412.363-2.107 1.958-1.889 5.15.509 6.673 1.671 1.088 3.633 1.305 12.353 1.305 5.741 0 10.319.218 10.247.508-.654 1.668-10.247 12.911-14.607 17.045-7.485 7.036-10.319 9.139-11.99 8.631-2.616-.87-13.516-7.833-19.475-12.475-14.171-10.952-25.87-27.417-30.448-42.504-4.215-13.998-4.142-33.219.145-50.046l1.163-4.86 5.159-.363c2.834-.29 6.322-.58 7.703-.652 4.287-.436 15.987.29 23.617 1.305zm-.866 44.182c-13.415-1.191-16.45-20.105-4.166-25.987 1.553-.745 2.895-1.415 2.965-1.415.142 0-.423 1.117-1.2 2.383-1.694 2.904-1.765 4.468-.353 7.223 1.412 2.978 4.66 4.095 7.766 2.755 2.754-1.266 3.883-3.128 3.883-6.553l.071-2.457 2.047 2.532c1.271 1.563 2.26 3.797 2.542 5.882 1.271 8.936-5.154 16.382-13.555 15.637z" fill="#fff"/><path d="M95.39 7.49c-3.415.871-5.232 2.032-7.049 4.57-1.453 2.031-1.671 3.482-1.889 10.082-.509 13.564 1.744 30.754 5.74 44.535.8 2.756 1.6 5.585 1.818 6.237.29 1.016-.51 1.306-4.579 1.741-19.983 2.031-45.635 11.678-64.53 24.37-13.806 9.285-17.876 14.072-16.713 19.947 1.017 5.657 18.894 26.111 32.337 36.991 20.348 16.537 46.072 27.635 73.832 31.914 8.357 1.233 31.901 1.668 36.625.653l2.543-.581-4.36 4.642c-9.229 9.937-17.441 23.936-21.873 37.572-2.035 6.092-2.616 9.211-2.98 15.812l-.436 8.196-4.287 2.321c-5.087 2.683-8.139 5.947-10.61 11.315-3.27 7.253-1.162 16.102 4.942 20.454 5.014 3.554 14.17 4.642 20.638 2.466l3.415-1.161 4.869 4.642c11.772 11.315 26.96 18.351 46.726 21.687 7.92 1.378 10.9 1.523 24.271 1.161 8.793-.218 17.731-.871 21.074-1.451 28.849-5.44 58.716-19.293 78.191-36.266 19.33-16.827 31.756-35.178 37.134-54.616 2.325-8.559 2.325-25.168 0-33.219-4.797-16.538-16.569-30.464-32.992-39.24l-4.36-2.321 3.561-3.554c3.851-3.917 9.374-7.181 13.371-7.906 2.47-.435 2.688-.363 4.069 2.248 4.796 9.284 19.112 5.803 19.112-4.714 0-9.067-10.174-13.491-24.344-10.59-8.284 1.669-14.17 4.715-20.492 10.735l-5.378 5.077.509-3.191c.654-4.28 2.252-8.922 4.651-13.709 2.034-3.989 6.903-10.154 7.993-10.154.291 0 1.671 1.015 2.979 2.248 2.98 2.757 4.942 3.554 8.721 3.554 3.706 0 7.049-1.45 9.519-4.061 7.703-8.269 1.817-21.325-9.665-21.325-2.034 0-5.086 1.016-9.883 3.337-15.333 7.326-25.942 22.847-27.541 40.182l-.509 4.86-2.979-.653c-1.599-.363-9.447-.798-17.368-1.088-13.879-.435-14.315-.435-14.606-1.958-3.924-21.034-6.032-28.288-11.7-41.126-19.402-44.244-58.425-76.52-105.296-87.328C125.039 8 100.768 6.04 95.391 7.491zm22.164 22.196c25.361 1.813 54.501 15.231 75.357 34.742 17.586 16.537 30.812 38.805 36.625 61.725.8 3.191 1.672 6.455 1.89 7.253.218.798-1.526-1.016-3.924-3.989-5.233-6.456-18.458-19.366-24.562-24.008-21.656-16.393-44.837-26.402-70.126-30.319-5.377-.797-11.118-1.595-12.644-1.668-2.761-.218-2.907-.363-4.215-4.207-4.287-12.403-6.394-22.34-7.557-35.033l-.436-5.657 1.671.363c.945.217 4.506.507 7.921.798zm14.897 67.381c21.074 4.207 37.57 11.388 54.719 23.863 6.177 4.497 23.4 20.817 23.4 22.195 0 1.088-12.427 8.559-20.347 12.258-29.504 13.781-64.53 15.739-95.705 5.367-16.496-5.512-29.285-12.765-43.746-24.733-8.212-6.746-17.44-16.61-16.35-17.335.435-.29 2.18-1.523 3.996-2.829 5.16-3.554 19.839-10.662 27.905-13.491 8.502-2.901 14.897-4.497 23.98-5.947 8.793-1.379 34.009-1.016 42.148.652zm151.877 62.45c8.793 1.233 14.607 3.046 23.254 7.253 23.617 11.46 32.992 33.872 24.49 58.678-1.963 5.73-2.035 5.875-5.451 7.108-6.104 2.249-12.571 2.974-19.257 2.031-5.45-.798-6.177-.798-7.412.363-2.107 1.958-1.889 5.15.509 6.673 1.671 1.088 3.633 1.305 12.353 1.305 5.741 0 10.319.218 10.247.508-.654 1.668-10.247 12.911-14.607 17.045-7.485 7.036-10.319 9.139-11.99 8.631-2.616-.87-13.516-7.833-19.475-12.475-14.171-10.952-25.87-27.417-30.448-42.504-4.215-13.998-4.142-33.219.145-50.046l1.163-4.86 5.159-.363c2.834-.29 6.322-.58 7.703-.652 4.287-.436 15.987.29 23.617 1.305zm-65.256 9.212c-2.107 8.776-2.398 30.826-.509 40.835 2.471 13.128 9.157 29.375 16.641 40.69 6.904 10.372 19.694 22.92 32.047 31.406l5.232 3.627-5.523 2.538c-3.052 1.379-8.792 3.627-12.862 4.933l-7.339 2.393-5.523-2.901c-24.925-12.983-42.947-32.059-49.923-52.876-5.378-16.102-5.523-36.12-.291-55.124.727-2.756 1.453-5.077 1.526-5.149 3.125-2.176 24.053-11.823 25.943-11.896.654-.072.799.436.581 1.524zm-58.135 45.549c.436 32.93 14.825 61.797 41.639 83.557l3.27 2.683-4.36-.362c-27.25-2.466-45.781-12.04-53.774-27.852-4.651-9.212-6.177-14.869-6.177-22.775 0-13.564 5.668-27.49 16.568-40.908 1.381-1.668 2.543-3.046 2.616-3.046 0 0 .146 3.916.218 8.703z" stroke="#fff" stroke-width="14" mask="url(#a)"/><path d="M283.462 203.699c-13.415-1.191-16.45-20.105-4.166-25.987 1.553-.745 2.895-1.415 2.965-1.415.142 0-.423 1.117-1.2 2.383-1.694 2.904-1.765 4.468-.353 7.223 1.412 2.978 4.66 4.095 7.766 2.755 2.754-1.266 3.883-3.128 3.883-6.553l.071-2.457 2.047 2.532c1.271 1.563 2.26 3.797 2.542 5.882 1.271 8.936-5.154 16.382-13.555 15.637zm-64.39-34.97c-2.107 8.776-2.398 30.826-.509 40.835 2.471 13.128 9.157 29.375 16.641 40.69 6.904 10.372 19.694 22.92 32.047 31.406l5.232 3.627-5.523 2.538c-3.052 1.379-8.792 3.627-12.862 4.933l-7.339 2.393-5.523-2.901c-24.925-12.983-42.947-32.059-49.923-52.876-5.378-16.102-5.523-36.12-.291-55.124.727-2.756 1.453-5.077 1.526-5.149 3.125-2.176 24.053-11.823 25.943-11.896.654-.072.799.436.581 1.524zm-58.135 45.549c.436 32.93 14.825 61.797 41.639 83.557l3.27 2.683-4.36-.362c-27.25-2.466-45.781-12.04-53.774-27.852-4.651-9.212-6.177-14.869-6.177-22.775 0-13.564 5.668-27.49 16.568-40.908 1.381-1.668 2.543-3.046 2.616-3.046 0 0 .146 3.916.218 8.703zM132.451 97.067c21.074 4.207 37.57 11.388 54.719 23.863 6.177 4.497 23.4 20.817 23.4 22.195 0 1.088-12.427 8.559-20.347 12.258-29.504 13.781-64.53 15.739-95.705 5.367-16.496-5.512-29.285-12.765-43.746-24.733-8.212-6.746-17.44-16.61-16.35-17.335.435-.29 2.18-1.523 3.996-2.829 5.16-3.554 19.839-10.662 27.905-13.491 8.502-2.901 14.897-4.497 23.98-5.947 8.793-1.379 34.009-1.016 42.148.652zm-14.897-67.381c25.361 1.813 54.501 15.231 75.357 34.742 17.586 16.537 30.812 38.805 36.625 61.725.8 3.191 1.672 6.455 1.89 7.253.218.798-1.526-1.016-3.924-3.989-5.233-6.456-18.458-19.366-24.562-24.008-21.656-16.393-44.837-26.402-70.126-30.319-5.377-.797-11.118-1.595-12.644-1.668-2.761-.218-2.907-.363-4.215-4.207-4.287-12.403-6.394-22.34-7.557-35.033l-.436-5.657 1.671.363c.945.217 4.506.507 7.921.798z" stroke="#fff" stroke-width="14" mask="url(#a)"/><path clip-rule="evenodd" d="M284.328 159.517c8.793 1.233 14.607 3.046 23.254 7.253 23.617 11.46 32.992 33.872 24.49 58.678-1.963 5.73-2.035 5.875-5.451 7.108-6.104 2.249-12.571 2.974-19.257 2.031-5.45-.798-6.177-.798-7.412.363-2.107 1.958-1.889 5.15.509 6.673 1.671 1.088 3.633 1.305 12.353 1.305 5.741 0 10.319.218 10.247.508-.654 1.668-10.247 12.911-14.607 17.045-7.485 7.036-10.319 9.139-11.99 8.631-2.616-.87-13.516-7.833-19.475-12.475-14.171-10.952-25.87-27.417-30.448-42.504-4.215-13.998-4.142-33.219.145-50.046l1.163-4.86 5.159-.363c2.834-.29 6.322-.58 7.703-.652 4.287-.436 15.987.29 23.617 1.305zm-.866 44.182c-13.415-1.191-16.45-20.105-4.166-25.987 1.553-.745 2.895-1.415 2.965-1.415.142 0-.423 1.117-1.2 2.383-1.694 2.904-1.765 4.468-.353 7.223 1.412 2.978 4.66 4.095 7.766 2.755 2.754-1.266 3.883-3.128 3.883-6.553l.071-2.457 2.047 2.532c1.271 1.563 2.26 3.797 2.542 5.882 1.271 8.936-5.154 16.382-13.555 15.637z" stroke="#fff" stroke-width="14" mask="url(#a)"/></svg>