<svg width="36" height="36" viewBox="0 0 36 36" fill="none" xmlns="http://www.w3.org/2000/svg">
<path d="M31.8462 10.0942C30.9156 10.5159 29.9255 10.7915 28.9108 10.9111C29.9833 10.249 30.7801 9.22107 31.1539 8.01727C30.1553 8.62533 29.0592 9.05629 27.9139 9.29112C27.4404 8.76955 26.8634 8.35242 26.2197 8.06634C25.5761 7.78025 24.8798 7.6315 24.1754 7.62958C23.4953 7.63861 22.8237 7.78151 22.1989 8.05014C21.5741 8.31876 21.0083 8.70783 20.5338 9.19513C20.0594 9.68244 19.6856 10.2584 19.4337 10.8902C19.1819 11.522 19.057 12.1972 19.0662 12.8773C19.0636 13.2784 19.1101 13.6783 19.2046 14.068C17.1536 13.9469 15.1518 13.3903 13.3326 12.4354C11.5134 11.4804 9.91846 10.1489 8.65386 8.52958C8.19319 9.35445 7.95463 10.2848 7.96156 11.2296C7.96017 12.0873 8.16741 12.9326 8.56541 13.6924C8.96342 14.4522 9.54025 15.1039 10.2462 15.5911C9.42975 15.5643 8.63183 15.3411 7.92002 14.9403C7.9112 16.1402 8.31492 17.3067 9.06356 18.2443C9.8122 19.182 10.8603 19.834 12.0323 20.0911C11.5804 20.2103 11.1151 20.2708 10.6477 20.2711C10.3287 20.2921 10.0083 20.2782 9.69233 20.2296C10.0039 21.2621 10.6334 22.17 11.4911 22.8239C12.3488 23.4777 13.391 23.8442 14.4692 23.8711C12.6777 25.3189 10.4449 26.1104 8.14156 26.1142C7.73568 26.1353 7.32898 26.1353 6.9231 26.1142C9.257 27.6231 11.9809 28.4171 14.76 28.3988C24.1616 28.3988 29.3123 20.4096 29.3123 13.4865C29.3123 13.2511 29.3123 13.0296 29.3123 12.808C30.3133 12.037 31.1749 11.1004 31.86 10.0388" fill="white"/>
</svg>
